<svg xmlns="http://www.w3.org/2000/svg" xmlns:xlink="http://www.w3.org/1999/xlink" width="500" zoomAndPan="magnify" viewBox="0 0 375 374.999991" height="500" preserveAspectRatio="xMidYMid meet" version="1.0"><path fill="#145da0" d="M 184.328125 216.117188 C 170.308594 216.117188 158.902344 204.714844 158.902344 190.691406 C 158.902344 176.671875 170.308594 165.269531 184.328125 165.269531 C 198.347656 165.269531 209.75 176.671875 209.75 190.691406 C 209.75 204.714844 198.347656 216.117188 184.328125 216.117188 Z M 184.328125 177.980469 C 177.320312 177.980469 171.617188 183.6875 171.617188 190.691406 C 171.617188 197.699219 177.320312 203.40625 184.328125 203.40625 C 191.332031 203.40625 197.039062 197.699219 197.039062 190.691406 C 197.039062 183.6875 191.332031 177.980469 184.328125 177.980469 Z M 184.328125 177.980469 " fill-opacity="1" fill-rule="nonzero"/><path fill="#145da0" d="M 116.175781 207.714844 L 164.980469 192.382812 L 168.789062 204.507812 L 119.984375 219.839844 Z M 116.175781 207.714844 " fill-opacity="1" fill-rule="nonzero"/><path fill="#145da0" d="M 28.601562 273.320312 C 12.832031 273.320312 0 260.492188 0 244.71875 C 0 232.726562 7.636719 221.933594 19.003906 217.859375 L 113.953125 183.851562 L 133.195312 237.746094 L 38.195312 271.582031 C 34.921875 272.753906 31.789062 273.320312 28.601562 273.320312 Z M 106.261719 200.113281 L 23.289062 229.824219 C 16.960938 232.09375 12.710938 238.074219 12.710938 244.71875 C 12.710938 253.484375 19.835938 260.609375 28.601562 260.609375 C 30.292969 260.609375 32.035156 260.277344 33.917969 259.609375 L 116.949219 230.042969 L 106.261719 200.117188 Z M 106.261719 200.113281 " fill-opacity="1" fill-rule="nonzero"/><path fill="#145da0" d="M 155.183594 254.996094 L 170.515625 206.191406 L 182.640625 210 L 167.308594 258.804688 Z M 155.183594 254.996094 " fill-opacity="1" fill-rule="nonzero"/><path fill="#145da0" d="M 130.300781 375.011719 C 114.53125 375.011719 101.699219 362.183594 101.699219 346.410156 C 101.699219 343.25 102.265625 340.117188 103.4375 336.824219 L 137.273438 241.816406 L 191.167969 261.066406 L 157.160156 356.007812 C 153.085938 367.378906 142.292969 375.011719 130.300781 375.011719 Z M 144.984375 258.066406 L 115.421875 341.089844 C 114.746094 342.980469 114.417969 344.726562 114.417969 346.410156 C 114.417969 355.175781 121.542969 362.300781 130.308594 362.300781 C 136.953125 362.300781 142.933594 358.050781 145.199219 351.726562 L 174.914062 268.761719 L 144.988281 258.066406 Z M 144.984375 258.066406 " fill-opacity="1" fill-rule="nonzero"/><path fill="#145da0" d="M 208.539062 194.421875 L 198.25 186.957031 L 324.417969 12.726562 L 286.421875 12.726562 C 276.261719 12.726562 266.636719 17.636719 260.675781 25.867188 L 201.921875 107.007812 C 194.40625 117.386719 189.589844 129.605469 188.007812 142.332031 L 184.28125 173.472656 L 171.65625 171.960938 L 175.390625 140.792969 C 177.242188 125.914062 182.859375 111.660156 191.632812 99.542969 L 250.382812 18.402344 C 258.730469 6.886719 272.203125 0.0117188 286.421875 0.0117188 L 349.320312 0.0117188 L 208.535156 194.421875 Z M 208.539062 194.421875 " fill-opacity="1" fill-rule="nonzero"/><path fill="#145da0" d="M 203.0625 203.359375 L 201.546875 190.730469 L 232.714844 186.996094 C 245.414062 185.417969 257.636719 180.605469 268.011719 173.089844 L 349.152344 114.335938 C 357.382812 108.375 362.296875 98.75 362.296875 88.589844 L 362.296875 50.59375 L 257.179688 126.710938 L 249.714844 116.417969 L 375.007812 25.695312 L 375.007812 88.589844 C 375.007812 102.808594 368.132812 116.28125 356.617188 124.628906 L 275.476562 183.382812 C 263.359375 192.160156 249.109375 197.777344 234.253906 199.617188 L 203.066406 203.359375 Z M 203.0625 203.359375 " fill-opacity="1" fill-rule="nonzero"/><path fill="#145da0" d="M 266.039062 133.777344 L 364.902344 62.109375 L 372.363281 72.402344 L 273.5 144.070312 Z M 266.039062 133.777344 " fill-opacity="1" fill-rule="nonzero"/><path fill="#145da0" d="M 179.171875 167.855469 L 284.007812 24.304688 L 294.273438 31.800781 L 189.4375 175.355469 Z M 179.171875 167.855469 " fill-opacity="1" fill-rule="nonzero"/><path fill="#145da0" d="M 55.441406 51.730469 L 64.429688 42.742188 L 90.601562 68.914062 L 81.613281 77.902344 Z M 55.441406 51.730469 " fill-opacity="1" fill-rule="nonzero"/><path fill="#145da0" d="M 31.78125 133.488281 L 63.5625 133.488281 L 63.5625 146.199219 L 31.78125 146.199219 Z M 31.78125 133.488281 " fill-opacity="1" fill-rule="nonzero"/><path fill="#145da0" d="M 146.1875 19.078125 L 158.898438 19.078125 L 158.898438 50.859375 L 146.1875 50.859375 Z M 146.1875 19.078125 " fill-opacity="1" fill-rule="nonzero"/><path fill="#145da0" d="M 290.914062 293.558594 L 299.902344 284.570312 L 326.019531 310.691406 L 317.03125 319.679688 Z M 290.914062 293.558594 " fill-opacity="1" fill-rule="nonzero"/><path fill="#145da0" d="M 317.800781 216.117188 L 349.582031 216.117188 L 349.582031 228.828125 L 317.800781 228.828125 Z M 317.800781 216.117188 " fill-opacity="1" fill-rule="nonzero"/><path fill="#145da0" d="M 222.460938 311.457031 L 235.171875 311.457031 L 235.171875 343.238281 L 222.460938 343.238281 Z M 222.460938 311.457031 " fill-opacity="1" fill-rule="nonzero"/></svg>