<svg xmlns="http://www.w3.org/2000/svg" xmlns:xlink="http://www.w3.org/1999/xlink" width="500" zoomAndPan="magnify" viewBox="0 0 375 374.999991" height="500" preserveAspectRatio="xMidYMid meet" version="1.0"><defs><clipPath id="3c2f1cd5e7"><path d="M 211 2.578125 L 373.347656 2.578125 L 373.347656 165 L 211 165 Z M 211 2.578125 " clip-rule="nonzero"/></clipPath><clipPath id="bfdf25f9a3"><path d="M 1.550781 12 L 352 12 L 352 372.269531 L 1.550781 372.269531 Z M 1.550781 12 " clip-rule="nonzero"/></clipPath><clipPath id="ce5e896f22"><path d="M 148 262 L 160 262 L 160 372.269531 L 148 372.269531 Z M 148 262 " clip-rule="nonzero"/></clipPath></defs><path fill="#145da0" d="M 338.664062 66.136719 L 327.121094 66.136719 L 327.121094 77.679688 C 338.664062 77.679688 327.121094 77.679688 338.664062 77.679688 L 338.664062 66.136719 " fill-opacity="1" fill-rule="nonzero"/><path fill="#145da0" d="M 327.121094 123.886719 C 338.664062 123.886719 327.121094 123.886719 338.664062 123.886719 L 338.664062 112.34375 L 327.121094 112.34375 L 327.121094 123.886719 " fill-opacity="1" fill-rule="nonzero"/><g clip-path="url(#3c2f1cd5e7)"><path fill="#145da0" d="M 289.511719 87.699219 L 276.40625 113.925781 C 272.757812 113.785156 265.367188 112.5625 255.6875 102.886719 C 246.007812 93.207031 244.667969 85.671875 244.667969 82.1875 L 270.894531 69.082031 Z M 284.28125 66.136719 L 288.367188 62.050781 C 290.554688 59.867188 294.359375 59.867188 296.542969 62.050781 C 297.625 63.152344 298.226562 64.59375 298.226562 66.136719 C 298.226562 67.679688 297.625 69.121094 296.542969 70.226562 L 292.457031 74.292969 Z M 292.457031 14.140625 C 305.039062 14.140625 316.820312 17.527344 327 23.417969 L 299.832031 50.609375 C 293.398438 47.703125 285.324219 48.765625 280.214844 53.875 L 276.125 57.960938 L 273.179688 55.015625 L 234.628906 74.292969 L 233.886719 76.554688 C 233.347656 78.160156 229.199219 92.726562 247.53125 111.0625 C 259.675781 123.203125 270.15625 125.488281 276.324219 125.488281 C 279.472656 125.488281 281.496094 124.886719 282.035156 124.707031 L 284.300781 123.945312 L 303.578125 85.414062 L 300.613281 82.46875 L 304.699219 78.378906 C 310.027344 73.070312 311.089844 65.15625 308.046875 58.722656 L 336.660156 30.109375 C 351.988281 42.832031 361.765625 62.03125 361.765625 83.46875 C 361.765625 121.679688 330.667969 152.777344 292.457031 152.777344 C 254.246094 152.777344 223.148438 121.679688 223.148438 83.46875 C 223.148438 45.238281 254.246094 14.140625 292.457031 14.140625 Z M 292.457031 164.320312 C 337.039062 164.320312 373.328125 128.054688 373.328125 83.46875 C 373.328125 38.867188 337.039062 2.597656 292.457031 2.597656 C 247.871094 2.597656 211.585938 38.867188 211.585938 83.46875 C 211.585938 128.054688 247.871094 164.320312 292.457031 164.320312 " fill-opacity="1" fill-rule="nonzero"/></g><g clip-path="url(#bfdf25f9a3)"><path fill="#145da0" d="M 339.523438 223.332031 L 338.542969 226.054688 L 335.796875 233.730469 L 317.261719 285.628906 L 200.042969 285.628906 L 200.042969 274.066406 L 307.925781 274.066406 L 309.109375 271.082031 L 318.144531 248.5 L 328.625 222.289062 L 329.707031 219.605469 C 330.125 218.542969 330.929688 217.761719 331.871094 217.238281 C 334.132812 215.976562 337.28125 216.296875 338.863281 218.542969 C 339.863281 219.945312 340.105469 221.6875 339.523438 223.332031 Z M 292.457031 354.9375 L 194.253906 354.9375 L 194.253906 343.394531 L 292.457031 343.394531 Z M 200.042969 297.167969 L 286.683594 297.167969 L 286.683594 331.832031 L 200.042969 331.832031 Z M 200.042969 224.394531 C 203.007812 224.210938 205.972656 223.492188 208.78125 222.128906 C 214.128906 219.523438 218.078125 215.09375 220.082031 209.683594 L 220.5 209.90625 L 221.261719 205.476562 C 221.261719 205.476562 221.261719 205.457031 221.261719 205.4375 L 222.144531 200.328125 L 222.925781 195.679688 C 233.96875 195.820312 249.574219 196.5625 268.632812 198.945312 C 292.695312 201.949219 308.265625 211.386719 317.402344 219.242188 L 300.089844 262.523438 L 200.042969 262.523438 Z M 334.574219 204.757812 C 330.285156 204.757812 326.28125 206.359375 323.253906 209.125 C 312.535156 200.367188 295.402344 190.648438 270.074219 187.484375 C 250.035156 184.980469 233.785156 184.21875 222.363281 184.097656 C 216.753906 146.367188 180.285156 107.554688 145.121094 89.980469 L 7.242188 12.054688 L 1.550781 22.113281 L 9.425781 26.5625 L 139.691406 100.179688 C 171.167969 115.910156 204.890625 151.097656 210.703125 184.21875 C 211.042969 186.140625 211.265625 188.066406 211.40625 189.96875 C 211.464844 190.570312 211.523438 191.171875 211.546875 191.75 L 208.519531 190.089844 L 200.445312 185.621094 L 9.425781 80.042969 L 7.164062 78.800781 L 1.570312 88.917969 L 9.425781 93.246094 L 193.851562 195.179688 L 198.941406 197.984375 L 204.011719 200.789062 L 209.78125 203.976562 C 209.058594 207.382812 206.875 210.207031 203.710938 211.730469 C 202.527344 212.308594 201.304688 212.671875 200.042969 212.8125 C 198.101562 213.03125 196.136719 212.730469 194.253906 211.910156 C 193.953125 211.769531 193.632812 211.628906 193.332031 211.46875 L 188.480469 208.984375 L 11.910156 118.675781 L 9.425781 117.414062 L 6.902344 116.128906 L 6.882812 116.171875 L 6.820312 116.152344 L 4.277344 121.28125 L 1.652344 126.410156 L 1.710938 126.429688 L 1.671875 126.488281 L 6.78125 129.035156 L 9.425781 130.378906 L 187.960938 221.707031 C 188.121094 221.789062 188.320312 221.847656 188.480469 221.949219 L 188.480469 331.832031 L 182.710938 331.832031 L 182.710938 366.5 L 188.480469 366.5 L 188.480469 372.269531 L 200.042969 372.269531 L 200.042969 366.5 L 286.683594 366.5 L 286.683594 372.269531 L 298.226562 372.269531 L 298.226562 366.5 L 304.019531 366.5 L 304.019531 331.832031 L 298.226562 331.832031 L 298.226562 297.167969 L 325.398438 297.167969 L 350.40625 227.21875 C 352.226562 222.070312 351.445312 216.339844 348.300781 211.890625 C 345.15625 207.421875 340.023438 204.757812 334.574219 204.757812 " fill-opacity="1" fill-rule="nonzero"/></g><path fill="#145da0" d="M 315.558594 118.113281 L 304.019531 118.113281 L 304.019531 129.675781 C 315.558594 129.675781 304.019531 129.675781 315.558594 129.675781 L 315.558594 118.113281 " fill-opacity="1" fill-rule="nonzero"/><path fill="#145da0" d="M 327.121094 89.238281 L 315.558594 89.238281 L 315.558594 100.78125 C 327.121094 100.78125 315.558594 100.78125 327.121094 100.78125 L 327.121094 89.238281 " fill-opacity="1" fill-rule="nonzero"/><path fill="#145da0" d="M 280.914062 227.859375 C 292.457031 227.859375 280.914062 227.859375 292.457031 227.859375 L 292.457031 216.316406 L 280.914062 216.316406 L 280.914062 227.859375 " fill-opacity="1" fill-rule="nonzero"/><path fill="#145da0" d="M 234.6875 227.859375 C 246.25 227.859375 234.6875 227.859375 246.25 227.859375 L 246.25 216.316406 L 234.6875 216.316406 L 234.6875 227.859375 " fill-opacity="1" fill-rule="nonzero"/><g clip-path="url(#ce5e896f22)"><path fill="#145da0" d="M 148.046875 366.5 L 148.046875 372.269531 L 159.609375 372.269531 L 159.609375 262.523438 L 148.046875 262.523438 L 148.046875 366.5 " fill-opacity="1" fill-rule="nonzero"/></g><path fill="#145da0" d="M 257.792969 227.859375 C 269.351562 227.859375 257.792969 227.859375 269.351562 227.859375 L 269.351562 216.316406 L 257.792969 216.316406 L 257.792969 227.859375 " fill-opacity="1" fill-rule="nonzero"/><path fill="#145da0" d="M 280.914062 250.960938 C 292.457031 250.960938 280.914062 250.960938 292.457031 250.960938 L 292.457031 239.421875 L 280.914062 239.421875 L 280.914062 250.960938 " fill-opacity="1" fill-rule="nonzero"/><path fill="#145da0" d="M 257.792969 250.960938 C 269.351562 250.960938 257.792969 250.960938 269.351562 250.960938 L 269.351562 239.421875 L 257.792969 239.421875 L 257.792969 250.960938 " fill-opacity="1" fill-rule="nonzero"/><path fill="#145da0" d="M 107.609375 198.984375 L 96.070312 198.984375 L 96.070312 233.648438 L 49.863281 233.648438 L 49.863281 164.320312 L 38.300781 164.320312 L 38.300781 233.648438 L 3.65625 233.648438 L 3.65625 245.191406 L 159.609375 245.191406 L 159.609375 233.648438 L 107.609375 233.648438 L 107.609375 198.984375 " fill-opacity="1" fill-rule="nonzero"/><path fill="#145da0" d="M 234.6875 250.960938 C 246.25 250.960938 234.6875 250.960938 246.25 250.960938 L 246.25 239.421875 L 234.6875 239.421875 L 234.6875 250.960938 " fill-opacity="1" fill-rule="nonzero"/><path fill="#145da0" d="M 211.585938 250.960938 C 223.148438 250.960938 211.585938 250.960938 223.148438 250.960938 L 223.148438 239.421875 L 211.585938 239.421875 L 211.585938 250.960938 " fill-opacity="1" fill-rule="nonzero"/></svg>