<svg xmlns="http://www.w3.org/2000/svg" xmlns:xlink="http://www.w3.org/1999/xlink" width="500" zoomAndPan="magnify" viewBox="0 0 375 374.999991" height="500" preserveAspectRatio="xMidYMid meet" version="1.0"><defs><clipPath id="674fa58191"><path d="M 7 279 L 87 279 L 87 357.609375 L 7 357.609375 Z M 7 279 " clip-rule="nonzero"/></clipPath><clipPath id="f810d62f9c"><path d="M 237 279 L 316 279 L 316 357.609375 L 237 357.609375 Z M 237 279 " clip-rule="nonzero"/></clipPath><clipPath id="26b5f463ad"><path d="M 1 344 L 107 344 L 107 357.609375 L 1 357.609375 Z M 1 344 " clip-rule="nonzero"/></clipPath><clipPath id="868f1fe5a3"><path d="M 119 344 L 133 344 L 133 357.609375 L 119 357.609375 Z M 119 344 " clip-rule="nonzero"/></clipPath><clipPath id="b4f8418709"><path d="M 197 344 L 369 344 L 369 357.609375 L 197 357.609375 Z M 197 344 " clip-rule="nonzero"/></clipPath><clipPath id="b2531e9632"><path d="M 197 17.109375 L 212 17.109375 L 212 57 L 197 57 Z M 197 17.109375 " clip-rule="nonzero"/></clipPath></defs><g clip-path="url(#674fa58191)"><path fill="#145da0" d="M 47.195312 357.863281 C 25.511719 357.863281 7.875 340.222656 7.875 318.542969 C 7.875 296.863281 25.511719 279.226562 47.195312 279.226562 C 68.875 279.226562 86.511719 296.863281 86.511719 318.542969 C 86.511719 340.222656 68.875 357.863281 47.195312 357.863281 Z M 47.195312 292.332031 C 32.738281 292.332031 20.980469 304.089844 20.980469 318.542969 C 20.980469 333 32.738281 344.757812 47.195312 344.757812 C 61.648438 344.757812 73.40625 333 73.40625 318.542969 C 73.40625 304.089844 61.648438 292.332031 47.195312 292.332031 Z M 47.195312 292.332031 " fill-opacity="1" fill-rule="nonzero"/></g><path fill="#145da0" d="M 53.742188 311.988281 L 40.636719 311.988281 L 40.636719 325.09375 L 53.742188 325.09375 Z M 53.742188 311.988281 " fill-opacity="1" fill-rule="nonzero"/><g clip-path="url(#f810d62f9c)"><path fill="#145da0" d="M 276.566406 357.863281 C 254.886719 357.863281 237.246094 340.222656 237.246094 318.542969 C 237.246094 296.863281 254.886719 279.226562 276.566406 279.226562 C 298.246094 279.226562 315.886719 296.863281 315.886719 318.542969 C 315.886719 340.222656 298.246094 357.863281 276.566406 357.863281 Z M 276.566406 292.332031 C 262.109375 292.332031 250.355469 304.089844 250.355469 318.542969 C 250.355469 333 262.109375 344.757812 276.566406 344.757812 C 291.023438 344.757812 302.78125 333 302.78125 318.542969 C 302.78125 304.089844 291.023438 292.332031 276.566406 292.332031 Z M 276.566406 292.332031 " fill-opacity="1" fill-rule="nonzero"/></g><path fill="#145da0" d="M 283.117188 311.988281 L 270.011719 311.988281 L 270.011719 325.09375 L 283.117188 325.09375 Z M 283.117188 311.988281 " fill-opacity="1" fill-rule="nonzero"/><g clip-path="url(#26b5f463ad)"><path fill="#145da0" d="M 1.316406 344.757812 L 106.175781 344.757812 L 106.175781 357.863281 L 1.316406 357.863281 Z M 1.316406 344.757812 " fill-opacity="1" fill-rule="nonzero"/></g><g clip-path="url(#868f1fe5a3)"><path fill="#145da0" d="M 119.28125 344.757812 L 132.390625 344.757812 L 132.390625 357.863281 L 119.28125 357.863281 Z M 119.28125 344.757812 " fill-opacity="1" fill-rule="nonzero"/></g><g clip-path="url(#b4f8418709)"><path fill="#145da0" d="M 197.921875 344.757812 L 368.3125 344.757812 L 368.3125 357.863281 L 197.921875 357.863281 Z M 197.921875 344.757812 " fill-opacity="1" fill-rule="nonzero"/></g><path fill="#145da0" d="M 79.300781 318.542969 L 244.457031 318.542969 L 244.457031 331.652344 L 79.300781 331.652344 Z M 79.300781 318.542969 " fill-opacity="1" fill-rule="nonzero"/><path fill="#145da0" d="M 283.117188 285.773438 L 270.011719 285.773438 L 270.011719 196.164062 L 63.25 255.234375 C 57.65625 256.835938 53.75 262.007812 53.75 267.835938 L 53.75 285.773438 L 40.644531 285.773438 L 40.644531 267.835938 C 40.644531 256.195312 48.460938 245.828125 59.660156 242.625 L 283.125 178.78125 L 283.125 285.773438 Z M 283.117188 285.773438 " fill-opacity="1" fill-rule="nonzero"/><path fill="#145da0" d="M 80.589844 243.238281 L 72.085938 209.179688 L 209.09375 168.683594 L 218.027344 204.429688 L 205.316406 207.597656 L 199.691406 185.128906 L 87.835938 218.191406 L 93.300781 240.0625 Z M 80.589844 243.238281 " fill-opacity="1" fill-rule="nonzero"/><path fill="#145da0" d="M 242.1875 201.5625 L 230.105469 196.476562 L 296.972656 37.671875 C 300.558594 29.144531 308.859375 23.640625 318.113281 23.640625 L 351.933594 23.640625 C 364.578125 23.640625 374.867188 33.929688 374.867188 46.574219 C 374.867188 59.214844 364.578125 69.507812 351.933594 69.507812 L 333.347656 69.507812 L 282.613281 190.007812 L 270.527344 184.921875 L 324.644531 56.394531 L 351.933594 56.394531 C 357.351562 56.394531 361.761719 51.984375 361.761719 46.566406 C 361.761719 41.148438 357.351562 36.738281 351.933594 36.738281 L 318.113281 36.738281 C 314.148438 36.738281 310.597656 39.097656 309.058594 42.75 L 242.1875 201.554688 Z M 242.1875 201.5625 " fill-opacity="1" fill-rule="nonzero"/><path fill="#145da0" d="M 77.828125 42.640625 L 88.304688 34.777344 L 114.867188 70.191406 L 104.386719 78.054688 Z M 77.828125 42.640625 " fill-opacity="1" fill-rule="nonzero"/><path fill="#145da0" d="M 0.125 125.40625 L 5.984375 113.683594 L 41.976562 131.679688 L 36.113281 143.402344 Z M 0.125 125.40625 " fill-opacity="1" fill-rule="nonzero"/><g clip-path="url(#b2531e9632)"><path fill="#145da0" d="M 197.921875 17.082031 L 211.027344 17.082031 L 211.027344 56.402344 L 197.921875 56.402344 Z M 197.921875 17.082031 " fill-opacity="1" fill-rule="nonzero"/></g></svg>