<svg xmlns="http://www.w3.org/2000/svg" xmlns:xlink="http://www.w3.org/1999/xlink" width="500" zoomAndPan="magnify" viewBox="0 0 375 374.999991" height="500" preserveAspectRatio="xMidYMid meet" version="1.0"><defs><clipPath id="c8a84b2900"><path d="M 0 290 L 375 290 L 375 344.484375 L 0 344.484375 Z M 0 290 " clip-rule="nonzero"/></clipPath></defs><path fill="#145da0" d="M 329.535156 80.3125 C 330.707031 78.847656 331 76.800781 330.414062 74.75 C 322.507812 53.371094 303.472656 38.726562 277.992188 34.921875 C 247.242188 30.234375 215.320312 41.65625 198.628906 63.621094 C 184.277344 82.363281 182.519531 106.964844 193.355469 133.027344 C 193.0625 135.078125 193.0625 137.421875 193.0625 139.472656 L 193.0625 163.191406 C 190.136719 159.09375 186.914062 155.285156 183.105469 152.0625 C 183.105469 152.0625 183.105469 151.769531 183.105469 151.769531 C 177.25 117.507812 153.527344 96.714844 119.847656 96.128906 C 119.265625 96.128906 118.972656 96.128906 118.386719 96.128906 C 83.242188 96.128906 49.855469 118.972656 43.707031 147.378906 C 43.414062 149.429688 44 151.183594 45.171875 152.648438 C 46.632812 154.113281 48.390625 154.699219 50.441406 154.40625 C 68.011719 151.183594 79.433594 159.972656 92.027344 169.34375 C 103.15625 177.542969 114.871094 186.328125 130.976562 186.328125 C 143.863281 186.328125 159.386719 180.472656 179.300781 164.363281 C 186.328125 171.976562 191.015625 181.351562 193.0625 190.722656 L 193.0625 221.472656 C 193.648438 222.058594 194.527344 222.644531 195.113281 223.230469 C 197.75 225.863281 199.214844 229.378906 199.800781 232.894531 L 202.4375 227.035156 C 203.023438 225.277344 204.191406 224.109375 205.070312 222.644531 L 205.070312 139.472656 C 205.070312 139.472656 205.070312 139.472656 205.070312 139.179688 C 216.785156 143.277344 227.035156 145.035156 235.527344 145.035156 C 263.644531 145.035156 276.53125 126 287.070312 109.890625 C 297.03125 94.664062 305.816406 81.777344 324.851562 82.65625 C 326.609375 82.65625 328.367188 81.777344 329.535156 80.3125 Z M 99.054688 159.972656 C 87.925781 151.476562 75.335938 142.105469 57.761719 142.105469 C 66.84375 121.898438 92.613281 107.257812 119.554688 107.550781 C 131.269531 107.84375 157.921875 111.648438 168.464844 141.519531 C 159.972656 137.128906 150.308594 134.492188 139.472656 134.492188 C 136.25 134.492188 133.613281 137.128906 133.613281 140.347656 C 133.613281 143.570312 136.25 146.207031 139.472656 146.207031 C 151.476562 146.207031 162.019531 150.015625 170.515625 156.164062 C 133.613281 186.035156 118.386719 174.320312 99.054688 159.972656 Z M 276.820312 103.449219 C 262.472656 125.121094 250.171875 143.570312 206.242188 127.464844 C 210.636719 111.355469 223.816406 99.054688 238.75 99.054688 C 241.972656 99.054688 244.609375 96.421875 244.609375 93.199219 C 244.609375 89.976562 241.972656 87.34375 238.75 87.34375 C 222.058594 87.34375 207.414062 97.886719 199.214844 113.113281 C 195.992188 97.007812 198.628906 82.65625 207.707031 70.941406 C 221.765625 52.785156 249.878906 42.828125 275.945312 46.632812 C 293.808594 49.269531 307.867188 58.347656 315.773438 71.527344 C 296.445312 74.457031 286.195312 89.683594 276.820312 103.449219 Z M 276.820312 103.449219 " fill-opacity="1" fill-rule="nonzero"/><g clip-path="url(#c8a84b2900)"><path fill="#145da0" d="M 342.421875 293.515625 C 340.371094 293.515625 338.324219 293.808594 336.566406 294.101562 C 335.980469 298.199219 333.929688 302.007812 330.707031 304.9375 L 321.628906 313.136719 C 321.921875 313.136719 322.214844 313.429688 322.507812 313.429688 C 324.558594 314.015625 326.609375 313.136719 328.074219 311.671875 C 331.878906 307.574219 337.152344 305.230469 342.714844 305.230469 C 354.429688 305.230469 361.75 315.480469 362.921875 332.757812 L 11.785156 332.757812 C 13.25 315.480469 20.570312 305.230469 31.992188 305.230469 C 37.554688 305.230469 42.828125 307.574219 46.632812 311.671875 C 48.097656 313.136719 50.148438 313.722656 52.199219 313.429688 C 54.25 313.136719 55.714844 311.671875 56.589844 309.621094 C 56.882812 309.035156 57.175781 308.449219 57.46875 307.574219 C 53.664062 302.300781 52.785156 295.566406 55.421875 290 C 53.078125 292.636719 50.734375 295.566406 48.976562 298.492188 C 44 295.273438 38.140625 293.808594 32.285156 293.808594 C 16.761719 293.808594 0.0703125 305.816406 0.0703125 338.910156 C 0.0703125 342.128906 2.707031 344.765625 5.925781 344.765625 L 369.074219 344.765625 C 372.292969 344.765625 374.929688 342.128906 374.929688 338.910156 C 374.636719 305.230469 357.945312 293.515625 342.421875 293.515625 Z M 342.421875 293.515625 " fill-opacity="1" fill-rule="nonzero"/></g><path fill="#145da0" d="M 117.507812 281.800781 L 141.8125 272.136719 C 143.570312 271.550781 145.035156 269.792969 145.328125 268.035156 C 145.621094 266.277344 145.328125 264.230469 143.863281 262.765625 L 119.847656 235.820312 C 118.679688 234.652344 117.214844 233.773438 115.457031 233.773438 C 113.699219 233.773438 112.234375 234.359375 111.0625 235.527344 L 92.027344 255.445312 C 91.148438 256.613281 90.5625 258.078125 90.5625 259.835938 C 90.5625 261.300781 91.441406 263.058594 92.613281 263.9375 L 111.648438 280.921875 C 112.820312 281.800781 113.992188 282.386719 115.457031 282.386719 C 116.042969 282.386719 116.921875 282.09375 117.507812 281.800781 Z M 104.914062 259.25 L 115.457031 248.414062 L 129.808594 264.523438 L 116.628906 269.792969 Z M 104.914062 259.25 " fill-opacity="1" fill-rule="nonzero"/><path fill="#145da0" d="M 273.601562 304.644531 L 297.90625 314.308594 C 298.492188 314.601562 299.371094 314.601562 299.957031 314.601562 C 301.421875 314.601562 302.886719 314.015625 303.765625 313.136719 L 322.800781 296.152344 C 323.972656 294.980469 324.851562 293.515625 324.851562 292.050781 C 324.851562 290.585938 324.265625 288.828125 323.09375 287.65625 L 304.058594 267.742188 C 302.886719 266.570312 301.421875 265.988281 299.664062 265.988281 C 297.90625 265.988281 296.445312 266.863281 295.273438 268.035156 L 270.964844 295.273438 C 269.792969 296.738281 269.207031 298.785156 269.5 300.542969 C 270.378906 302.300781 271.84375 303.765625 273.601562 304.644531 Z M 300.25 280.628906 L 310.792969 291.464844 L 299.078125 302.007812 L 285.902344 296.738281 Z M 300.25 280.628906 " fill-opacity="1" fill-rule="nonzero"/><path fill="#145da0" d="M 182.8125 260.128906 L 187.792969 236.699219 C 188.085938 234.941406 187.5 232.894531 186.328125 231.429688 C 185.15625 229.964844 183.105469 229.378906 181.351562 229.671875 L 154.992188 233.1875 C 152.0625 233.480469 150.015625 236.113281 150.015625 239.042969 L 150.015625 258.957031 C 150.015625 262.179688 152.648438 264.816406 155.871094 264.816406 L 177.25 264.816406 C 179.886719 264.816406 182.519531 262.765625 182.8125 260.128906 Z M 172.5625 253.101562 L 161.726562 253.101562 L 161.726562 244.316406 L 174.90625 242.558594 Z M 172.5625 253.101562 " fill-opacity="1" fill-rule="nonzero"/><path fill="#145da0" d="M 109.890625 294.394531 L 88.804688 278.285156 C 86.464844 276.53125 83.242188 276.820312 81.191406 278.871094 L 67.132812 292.929688 C 64.792969 295.273438 64.792969 298.785156 67.132812 301.128906 L 82.363281 316.359375 C 83.535156 317.53125 85 318.117188 86.464844 318.117188 C 87.636719 318.117188 88.804688 317.824219 89.683594 317.238281 L 109.597656 304.058594 C 111.0625 302.886719 112.234375 301.128906 112.234375 299.371094 C 112.234375 297.324219 111.355469 295.566406 109.890625 294.394531 Z M 87.050781 304.644531 L 79.433594 297.03125 L 85.585938 290.878906 L 96.128906 298.785156 Z M 87.050781 304.644531 " fill-opacity="1" fill-rule="nonzero"/><path fill="#145da0" d="M 288.242188 268.914062 L 293.222656 245.484375 C 293.515625 243.730469 292.929688 241.679688 291.757812 240.214844 C 290.585938 238.75 288.535156 238.164062 286.78125 238.457031 L 260.421875 241.972656 C 257.492188 242.265625 255.445312 244.902344 255.445312 247.828125 L 255.445312 267.742188 C 255.445312 270.964844 258.078125 273.601562 261.300781 273.601562 L 282.679688 273.601562 C 285.316406 273.601562 287.65625 271.550781 288.242188 268.914062 Z M 277.699219 261.886719 L 266.863281 261.886719 L 266.863281 253.101562 L 280.042969 251.34375 Z M 277.699219 261.886719 " fill-opacity="1" fill-rule="nonzero"/><path fill="#145da0" d="M 133.90625 314.601562 L 155.285156 314.601562 C 157.921875 314.601562 160.558594 312.550781 161.144531 309.914062 L 166.121094 286.488281 C 166.414062 284.730469 165.828125 282.679688 164.65625 281.214844 C 163.484375 279.75 161.433594 279.164062 159.679688 279.457031 L 133.320312 283.265625 C 130.390625 283.558594 128.34375 286.195312 128.34375 289.121094 L 128.34375 309.035156 C 128.050781 311.964844 130.390625 314.601562 133.90625 314.601562 Z M 139.765625 293.808594 L 152.941406 292.050781 L 150.601562 302.59375 L 139.765625 302.59375 Z M 139.765625 293.808594 " fill-opacity="1" fill-rule="nonzero"/><path fill="#145da0" d="M 223.816406 269.207031 C 224.398438 269.207031 224.984375 269.207031 225.570312 268.914062 L 239.628906 264.523438 C 241.386719 263.9375 242.851562 262.472656 243.4375 260.421875 L 249.878906 238.457031 C 250.464844 236.699219 250.171875 234.941406 249 233.480469 C 247.828125 232.015625 246.363281 231.136719 244.902344 230.84375 L 218.835938 227.914062 C 216.199219 227.621094 213.855469 229.085938 212.6875 231.429688 L 203.605469 252.808594 C 202.4375 255.445312 203.605469 258.664062 206.242188 260.128906 L 220.886719 268.328125 C 221.765625 268.914062 222.9375 269.207031 223.816406 269.207031 Z M 221.765625 240.214844 L 236.699219 241.972656 L 233.1875 254.273438 L 224.398438 256.90625 L 216.492188 252.515625 Z M 221.765625 240.214844 " fill-opacity="1" fill-rule="nonzero"/><path fill="#145da0" d="M 178.421875 311.085938 C 179.59375 312.257812 181.058594 313.136719 182.8125 313.136719 C 183.105469 313.136719 183.691406 313.136719 183.984375 313.136719 L 206.828125 308.742188 C 210.050781 308.15625 212.101562 305.230469 211.515625 302.007812 L 207.707031 279.75 C 207.414062 277.40625 205.363281 275.359375 202.730469 275.066406 L 177.835938 271.257812 C 174.90625 270.671875 171.976562 272.722656 171.394531 275.652344 L 167 294.101562 C 166.414062 295.859375 167 297.90625 168.171875 299.371094 Z M 181.351562 283.558594 L 196.871094 285.902344 L 198.921875 297.90625 L 184.863281 300.542969 L 178.714844 293.515625 Z M 181.351562 283.558594 " fill-opacity="1" fill-rule="nonzero"/><path fill="#145da0" d="M 230.84375 311.085938 C 232.015625 312.257812 233.480469 313.136719 235.234375 313.136719 C 235.527344 313.136719 236.113281 313.136719 236.40625 313.136719 L 259.25 308.742188 C 262.472656 308.15625 264.523438 305.230469 263.9375 302.007812 L 260.128906 280.042969 C 259.835938 277.699219 257.785156 275.652344 255.152344 275.359375 L 230.257812 271.257812 C 227.328125 270.671875 224.398438 272.722656 223.816406 275.652344 L 219.421875 294.101562 C 218.835938 295.859375 219.421875 297.90625 220.59375 299.371094 Z M 233.773438 283.558594 L 249.292969 285.902344 L 251.34375 297.90625 L 237.285156 300.542969 L 231.136719 293.515625 Z M 233.773438 283.558594 " fill-opacity="1" fill-rule="nonzero"/></svg>