<svg xmlns="http://www.w3.org/2000/svg" xmlns:xlink="http://www.w3.org/1999/xlink" width="500" zoomAndPan="magnify" viewBox="0 0 375 374.999991" height="500" preserveAspectRatio="xMidYMid meet" version="1.0"><defs><clipPath id="2ff498b487"><path d="M 3 0 L 372.65625 0 L 372.65625 375 L 3 375 Z M 3 0 " clip-rule="nonzero"/></clipPath></defs><path fill="#145da0" d="M 196.761719 342.773438 C 182.222656 342.773438 170.394531 330.945312 170.394531 316.40625 C 170.394531 301.867188 182.222656 290.039062 196.761719 290.039062 C 211.300781 290.039062 223.128906 301.867188 223.128906 316.40625 C 223.128906 330.945312 211.300781 342.773438 196.761719 342.773438 Z M 196.761719 301.757812 C 188.683594 301.757812 182.113281 308.328125 182.113281 316.40625 C 182.113281 324.484375 188.683594 331.054688 196.761719 331.054688 C 204.839844 331.054688 211.410156 324.484375 211.410156 316.40625 C 211.410156 308.328125 204.839844 301.757812 196.761719 301.757812 Z M 196.761719 301.757812 " fill-opacity="1" fill-rule="nonzero"/><g clip-path="url(#2ff498b487)"><path fill="#145da0" d="M 372.542969 325.195312 C 372.542969 328.429688 369.917969 331.054688 366.683594 331.054688 L 253.429688 331.054688 C 246.898438 356.285156 224.003906 375 196.761719 375 C 164.453125 375 138.167969 348.714844 138.167969 316.40625 C 138.167969 307.847656 140.058594 299.730469 143.371094 292.394531 L 121.695312 237.035156 C 120.367188 233.640625 117.164062 231.445312 113.53125 231.445312 L 85.433594 231.445312 C 82.203125 231.445312 79.574219 234.074219 79.574219 237.304688 L 79.574219 250.046875 L 95.125 271.429688 C 97.730469 275.011719 98.101562 279.691406 96.089844 283.640625 C 94.078125 287.589844 90.078125 290.042969 85.648438 290.042969 L 14.910156 290.042969 C 10.476562 290.042969 6.480469 287.589844 4.46875 283.640625 C 2.457031 279.691406 2.828125 275.011719 5.433594 271.429688 L 20.984375 250.046875 L 20.984375 234.238281 C 20.984375 227.449219 22.933594 220.84375 26.625 215.140625 L 48.957031 180.628906 C 53.292969 173.925781 60.648438 169.925781 68.632812 169.925781 L 109.917969 169.925781 L 76.207031 116.949219 C 63.257812 115.289062 53.207031 104.21875 53.207031 90.824219 L 53.207031 11.71875 C 53.207031 5.257812 58.464844 0 64.925781 0 L 281.722656 0 C 288.1875 0 293.441406 5.257812 293.441406 11.71875 L 293.441406 90.820312 C 293.441406 104.214844 283.394531 115.285156 270.445312 116.945312 L 235.851562 171.308594 C 240.65625 173.136719 244.746094 176.703125 247.054688 181.445312 L 293.09375 275.945312 C 295.53125 280.949219 300.699219 284.179688 306.261719 284.179688 L 366.683594 284.179688 C 369.917969 284.179688 372.542969 286.804688 372.542969 290.039062 C 372.542969 293.273438 369.917969 295.898438 366.683594 295.898438 L 306.261719 295.898438 C 296.25 295.898438 286.945312 290.082031 282.558594 281.078125 L 236.519531 186.578125 C 235.058594 183.578125 231.957031 181.640625 228.621094 181.640625 L 68.628906 181.640625 C 64.636719 181.640625 60.960938 183.640625 58.792969 186.992188 L 36.457031 221.503906 C 34 225.304688 32.699219 229.707031 32.699219 234.238281 L 32.699219 246.09375 L 67.855469 246.09375 L 67.855469 237.304688 C 67.855469 227.609375 75.738281 219.726562 85.433594 219.726562 L 113.53125 219.726562 C 122.027344 219.726562 129.515625 224.847656 132.609375 232.765625 L 151.046875 279.847656 C 161.007812 267.417969 175.910156 259.164062 192.753906 258.015625 L 208.519531 219.726562 L 152.8125 219.726562 C 149.578125 219.726562 146.953125 217.101562 146.953125 213.867188 C 146.953125 210.632812 149.578125 208.007812 152.8125 208.007812 L 208.519531 208.007812 C 212.4375 208.007812 216.078125 209.949219 218.253906 213.203125 C 220.433594 216.460938 220.84375 220.5625 219.351562 224.1875 L 205.226562 258.496094 C 233.523438 262.621094 255.351562 286.980469 255.351562 316.40625 C 255.351562 317.394531 255.25 318.359375 255.199219 319.335938 L 366.683594 319.335938 C 369.917969 319.335938 372.542969 321.960938 372.542969 325.195312 Z M 222.84375 169.921875 L 256.398438 117.1875 L 90.246094 117.1875 L 123.808594 169.921875 Z M 281.722656 90.820312 L 281.722656 11.71875 L 64.925781 11.71875 L 64.925781 90.820312 C 64.925781 98.898438 71.496094 105.46875 79.574219 105.46875 L 267.074219 105.46875 C 275.152344 105.46875 281.722656 98.898438 281.722656 90.820312 Z M 85.644531 278.320312 L 70.730469 257.8125 L 29.824219 257.8125 L 14.90625 278.320312 Z M 196.769531 269.53125 C 196.765625 269.53125 196.761719 269.53125 196.757812 269.53125 C 196.757812 269.53125 196.753906 269.53125 196.75 269.53125 C 170.910156 269.539062 149.886719 290.5625 149.886719 316.40625 C 149.886719 342.253906 170.917969 363.28125 196.761719 363.28125 C 222.609375 363.28125 243.636719 342.253906 243.636719 316.40625 C 243.636719 290.558594 222.609375 269.535156 196.769531 269.53125 Z M 196.769531 269.53125 " fill-opacity="1" fill-rule="nonzero"/></g><path fill="#145da0" d="M 80.789062 320.550781 C 79.640625 321.695312 78.144531 322.265625 76.644531 322.265625 C 75.144531 322.265625 73.648438 321.695312 72.503906 320.550781 C 70.214844 318.261719 70.214844 314.550781 72.503906 312.265625 L 84.222656 300.546875 C 86.507812 298.257812 90.21875 298.257812 92.507812 300.546875 C 94.792969 302.832031 94.792969 306.542969 92.507812 308.832031 Z M 80.789062 320.550781 " fill-opacity="1" fill-rule="nonzero"/><path fill="#145da0" d="M 92.507812 338.128906 L 80.789062 349.847656 C 79.640625 350.992188 78.144531 351.5625 76.644531 351.5625 C 75.144531 351.5625 73.648438 350.992188 72.503906 349.847656 C 70.214844 347.558594 70.214844 343.847656 72.503906 341.5625 L 84.222656 329.84375 C 86.507812 327.554688 90.21875 327.554688 92.507812 329.84375 C 94.792969 332.128906 94.792969 335.839844 92.507812 338.128906 Z M 92.507812 338.128906 " fill-opacity="1" fill-rule="nonzero"/><path fill="#145da0" d="M 48.5625 320.550781 C 47.414062 321.695312 45.917969 322.265625 44.417969 322.265625 C 42.917969 322.265625 41.421875 321.695312 40.277344 320.550781 C 37.988281 318.261719 37.988281 314.550781 40.277344 312.265625 L 51.996094 300.546875 C 54.28125 298.257812 57.992188 298.257812 60.28125 300.546875 C 62.566406 302.832031 62.566406 306.542969 60.28125 308.832031 Z M 48.5625 320.550781 " fill-opacity="1" fill-rule="nonzero"/><path fill="#145da0" d="M 60.28125 338.128906 L 48.5625 349.847656 C 47.414062 350.992188 45.917969 351.5625 44.417969 351.5625 C 42.917969 351.5625 41.421875 350.992188 40.277344 349.847656 C 37.988281 347.558594 37.988281 343.847656 40.277344 341.5625 L 51.996094 329.84375 C 54.28125 327.554688 57.992188 327.554688 60.28125 329.84375 C 62.566406 332.128906 62.566406 335.839844 60.28125 338.128906 Z M 60.28125 338.128906 " fill-opacity="1" fill-rule="nonzero"/><path fill="#145da0" d="M 16.335938 320.550781 C 15.1875 321.695312 13.691406 322.265625 12.191406 322.265625 C 10.691406 322.265625 9.195312 321.695312 8.050781 320.550781 C 5.761719 318.261719 5.761719 314.550781 8.050781 312.265625 L 19.769531 300.546875 C 22.054688 298.257812 25.765625 298.257812 28.054688 300.546875 C 30.339844 302.832031 30.339844 306.542969 28.054688 308.832031 Z M 16.335938 320.550781 " fill-opacity="1" fill-rule="nonzero"/><path fill="#145da0" d="M 28.054688 338.128906 L 16.335938 349.847656 C 15.1875 350.992188 13.691406 351.5625 12.191406 351.5625 C 10.691406 351.5625 9.195312 350.992188 8.050781 349.847656 C 5.761719 347.558594 5.761719 343.847656 8.050781 341.5625 L 19.769531 329.84375 C 22.054688 327.554688 25.765625 327.554688 28.054688 329.84375 C 30.339844 332.128906 30.339844 335.839844 28.054688 338.128906 Z M 28.054688 338.128906 " fill-opacity="1" fill-rule="nonzero"/></svg>