<svg xmlns="http://www.w3.org/2000/svg" xmlns:xlink="http://www.w3.org/1999/xlink" width="500" zoomAndPan="magnify" viewBox="0 0 375 374.999991" height="500" preserveAspectRatio="xMidYMid meet" version="1.0"><path fill="#145da0" d="M 336.742188 87.5 L 331.175781 42.992188 C 330.808594 39.867188 328.125 37.5 325 37.5 L 268.75 37.5 L 268.75 12.5 L 350.804688 12.5 L 361.546875 87.5 Z M 312.5 68.75 L 312.5 50 L 319.507812 50 L 321.800781 68.75 Z M 281.25 312.5 L 262.5 312.5 L 262.5 287.5 L 281.25 287.5 Z M 281.25 362.5 L 256.25 362.5 L 256.25 360.742188 C 259.9375 358.570312 262.5 354.613281 262.5 350 L 262.5 325 L 281.25 325 Z M 223.242188 325 C 221.070312 328.6875 217.113281 331.25 212.5 331.25 C 205.640625 331.25 200 325.632812 200 318.75 C 200 311.890625 205.640625 306.25 212.5 306.25 C 217.113281 306.25 221.070312 308.8125 223.242188 312.5 L 212.5 312.5 L 212.5 325 Z M 250 312.5 L 236.621094 312.5 C 233.8125 301.757812 224.121094 293.75 212.5 293.75 C 198.679688 293.75 187.5 304.929688 187.5 318.75 C 187.5 332.566406 198.679688 343.75 212.5 343.75 C 224.121094 343.75 233.8125 335.742188 236.621094 325 L 250 325 L 250 350 L 125 350 L 125 156.25 L 250 156.25 Z M 118.75 362.5 L 93.75 362.5 L 93.75 287.5 L 112.5 287.5 L 112.5 350 C 112.5 354.613281 115.0625 358.570312 118.75 360.742188 Z M 212.5 118.75 L 212.5 143.75 L 162.5 143.75 L 162.5 118.75 Z M 143.75 100 L 231.25 100 L 231.25 143.75 L 225 143.75 L 225 112.5 C 225 109.058594 222.191406 106.25 218.75 106.25 L 156.25 106.25 C 152.808594 106.25 150 109.058594 150 112.5 L 150 143.75 L 143.75 143.75 Z M 256.25 25 L 50 25 L 50 18.75 L 256.25 18.75 Z M 37.5 31.25 L 12.5 31.25 L 12.5 12.5 L 37.5 12.5 Z M 362.425781 5.371094 C 361.988281 2.320312 359.375 0 356.25 0 L 262.5 0 C 259.058594 0 256.25 2.808594 256.25 6.25 L 50 6.25 C 50 2.808594 47.191406 0 43.75 0 L 6.25 0 C 2.808594 0 0 2.808594 0 6.25 L 0 37.5 C 0 40.941406 2.808594 43.75 6.25 43.75 L 43.75 43.75 C 47.191406 43.75 50 40.941406 50 37.5 L 256.25 37.5 L 256.25 43.75 C 256.25 47.191406 259.058594 50 262.5 50 L 300 50 L 300 75 C 300 78.441406 302.808594 81.25 306.25 81.25 L 323.363281 81.25 L 325.074219 94.507812 C 325.4375 97.632812 328.125 100 331.25 100 L 343.675781 100 L 343.75 293.75 C 343.75 298.753906 341.820312 303.441406 338.257812 307.007812 C 334.691406 310.570312 330.003906 312.5 325 312.5 L 293.75 312.5 L 293.75 287.5 C 293.75 280.640625 288.109375 275 281.25 275 L 262.5 275 L 262.5 156.25 C 262.5 149.390625 256.859375 143.75 250 143.75 L 243.75 143.75 L 243.75 93.75 C 243.75 90.308594 240.941406 87.5 237.5 87.5 L 137.5 87.5 C 134.058594 87.5 131.25 90.308594 131.25 93.75 L 131.25 143.75 L 125 143.75 C 118.140625 143.75 112.5 149.390625 112.5 156.25 L 112.5 275 L 93.75 275 C 86.890625 275 81.25 280.640625 81.25 287.5 L 81.25 362.5 C 81.25 369.382812 86.890625 375 93.75 375 L 118.75 375 C 125.609375 375 131.25 369.382812 131.25 362.5 L 243.75 362.5 C 243.75 369.382812 249.390625 375 256.25 375 L 281.25 375 C 288.109375 375 293.75 369.382812 293.75 362.5 L 293.75 325 L 325 325 C 333.324219 325 341.1875 321.753906 347.117188 315.867188 C 353.003906 309.9375 356.25 302.074219 356.25 293.75 L 356.175781 100 L 368.75 100 C 370.554688 100 372.3125 99.195312 373.511719 97.875 C 374.683594 96.507812 375.195312 94.703125 374.925781 92.871094 L 362.425781 5.371094 " fill-opacity="1" fill-rule="nonzero"/><path fill="#145da0" d="M 231.25 256.25 L 143.75 256.25 L 143.75 181.25 L 231.25 181.25 Z M 243.75 262.5 L 243.75 175 C 243.75 171.558594 240.941406 168.75 237.5 168.75 L 137.5 168.75 C 134.058594 168.75 131.25 171.558594 131.25 175 L 131.25 262.5 C 131.25 265.941406 134.058594 268.75 137.5 268.75 L 237.5 268.75 C 240.941406 268.75 243.75 265.941406 243.75 262.5 " fill-opacity="1" fill-rule="nonzero"/><path fill="#145da0" d="M 181.25 201.148438 L 181.25 236.351562 C 174 233.765625 168.75 226.878906 168.75 218.75 C 168.75 210.621094 174 203.734375 181.25 201.148438 Z M 206.25 218.75 C 206.25 226.878906 201 233.765625 193.75 236.351562 L 193.75 201.148438 C 201 203.734375 206.25 210.621094 206.25 218.75 Z M 187.5 250 C 204.734375 250 218.75 235.984375 218.75 218.75 C 218.75 201.511719 204.734375 187.5 187.5 187.5 C 170.261719 187.5 156.25 201.511719 156.25 218.75 C 156.25 235.984375 170.261719 250 187.5 250 " fill-opacity="1" fill-rule="nonzero"/></svg>