<svg xmlns="http://www.w3.org/2000/svg" xmlns:xlink="http://www.w3.org/1999/xlink" width="500" zoomAndPan="magnify" viewBox="0 0 375 374.999991" height="500" preserveAspectRatio="xMidYMid meet" version="1.0"><defs><clipPath id="e1bc2cddef"><path d="M 35.390625 313.113281 L 339.613281 313.113281 L 339.613281 374.972656 L 35.390625 374.972656 Z M 35.390625 313.113281 " clip-rule="nonzero"/></clipPath></defs><path fill="#145da0" d="M 174.78125 70.722656 C 172.207031 68 166.910156 62.195312 161.679688 55.214844 C 154.902344 46.15625 150.421875 38.007812 148.632812 31.585938 L 202.667969 31.585938 C 205.804688 31.585938 208.347656 29.042969 208.347656 25.90625 C 208.347656 22.769531 205.804688 20.226562 202.667969 20.226562 L 148.148438 20.226562 C 148.945312 15.578125 150.839844 14.375 153.015625 13.507812 C 158.3125 11.386719 168.445312 11.386719 182.46875 11.386719 C 196.488281 11.386719 206.621094 11.386719 211.917969 13.507812 C 214.800781 14.65625 217.183594 16.386719 217.183594 25.90625 C 217.183594 32.804688 212.238281 43.210938 203.253906 55.214844 C 198.023438 62.195312 192.726562 68 190.152344 70.722656 Z M 186.886719 121.222656 L 178.046875 121.222656 L 178.046875 82.085938 L 186.886719 82.085938 Z M 95.988281 318.792969 C 95.988281 321.933594 98.53125 324.476562 101.671875 324.476562 C 104.808594 324.476562 107.351562 321.933594 107.351562 318.792969 L 107.351562 263.878906 L 257.582031 263.878906 L 257.582031 318.792969 C 257.582031 321.933594 260.125 324.476562 263.265625 324.476562 C 266.402344 324.476562 268.945312 321.933594 268.945312 318.792969 L 268.945312 258.195312 C 268.945312 255.058594 266.402344 252.515625 263.265625 252.515625 L 188.148438 252.515625 L 188.148438 132.582031 L 192.566406 132.582031 C 195.703125 132.582031 198.246094 130.039062 198.246094 126.902344 L 198.246094 78.703125 C 200.957031 75.851562 206.582031 69.710938 212.261719 62.140625 C 223.066406 47.730469 228.546875 35.539062 228.546875 25.90625 C 228.546875 17.53125 227.136719 7.359375 216.136719 2.957031 C 208.8125 0.0273438 198.332031 0.0273438 182.46875 0.0273438 C 166.605469 0.0273438 156.125 0.0273438 148.796875 2.957031 C 137.796875 7.359375 136.386719 17.53125 136.386719 25.90625 C 136.386719 35.539062 141.867188 47.730469 152.675781 62.140625 C 158.355469 69.710938 163.976562 75.851562 166.6875 78.703125 L 166.6875 126.902344 C 166.6875 130.039062 169.230469 132.582031 172.367188 132.582031 L 176.785156 132.582031 L 176.785156 252.515625 L 101.671875 252.515625 C 98.53125 252.515625 95.988281 255.058594 95.988281 258.195312 L 95.988281 318.792969 " fill-opacity="1" fill-rule="nonzero"/><path fill="#145da0" d="M 146.488281 278.394531 L 146.488281 298.59375 C 146.488281 301.734375 149.03125 304.277344 152.167969 304.277344 C 155.304688 304.277344 157.847656 301.734375 157.847656 298.59375 L 157.847656 278.394531 C 157.847656 275.257812 155.304688 272.714844 152.167969 272.714844 C 149.03125 272.714844 146.488281 275.257812 146.488281 278.394531 " fill-opacity="1" fill-rule="nonzero"/><path fill="#145da0" d="M 207.085938 278.394531 L 207.085938 298.59375 C 207.085938 301.734375 209.628906 304.277344 212.765625 304.277344 C 215.902344 304.277344 218.445312 301.734375 218.445312 298.59375 L 218.445312 278.394531 C 218.445312 275.257812 215.902344 272.714844 212.765625 272.714844 C 209.628906 272.714844 207.085938 275.257812 207.085938 278.394531 " fill-opacity="1" fill-rule="nonzero"/><g clip-path="url(#e1bc2cddef)"><path fill="#145da0" d="M 339.011719 346.550781 C 338.535156 345.597656 326.964844 323.230469 293.5625 323.214844 C 293.558594 323.214844 293.550781 323.214844 293.546875 323.214844 C 293.542969 323.214844 293.535156 323.214844 293.53125 323.214844 C 266 323.226562 253.300781 338.425781 249.421875 344.300781 C 247.78125 342.773438 246.035156 341.226562 244.175781 339.679688 C 234.941406 331.984375 224.898438 325.847656 214.320312 321.4375 C 201.058594 315.914062 186.945312 313.113281 172.367188 313.113281 C 130.101562 313.113281 108.644531 334.082031 107.753906 334.976562 C 106.761719 335.96875 106.214844 337.234375 106.109375 338.53125 C 99.730469 335.558594 91.621094 333.402344 81.472656 333.320312 L 81.472656 333.3125 C 81.371094 333.3125 81.273438 333.316406 81.171875 333.316406 C 81.070312 333.316406 80.972656 333.3125 80.871094 333.3125 L 80.871094 333.320312 C 47.910156 333.585938 36.464844 355.707031 35.992188 356.652344 C 34.589844 359.457031 35.726562 362.871094 38.53125 364.273438 C 39.347656 364.683594 40.214844 364.875 41.066406 364.875 C 43.152344 364.875 45.160156 363.726562 46.152344 361.734375 C 46.238281 361.5625 54.925781 344.804688 81.171875 344.679688 C 107.414062 344.804688 116.101562 361.5625 116.1875 361.734375 C 117.183594 363.726562 119.1875 364.875 121.273438 364.875 C 122.128906 364.875 122.992188 364.683594 123.808594 364.273438 C 126.613281 362.871094 127.753906 359.457031 126.351562 356.652344 C 126.097656 356.152344 122.785156 349.742188 114.855469 343.769531 C 115.179688 343.558594 115.484375 343.3125 115.769531 343.027344 C 115.816406 342.980469 120.609375 338.320312 129.945312 333.734375 C 145.515625 326.082031 161.609375 324.476562 172.367188 324.476562 C 185.351562 324.476562 197.917969 326.949219 209.71875 331.832031 C 219.207031 335.757812 228.25 341.246094 236.589844 348.148438 C 250.9375 360.019531 258.324219 372.101562 258.394531 372.214844 C 259.457031 373.992188 261.339844 374.972656 263.269531 374.972656 C 264.265625 374.972656 265.273438 374.710938 266.1875 374.164062 C 268.878906 372.550781 269.75 369.058594 268.136719 366.371094 C 267.917969 366.011719 264.425781 360.253906 257.605469 352.636719 C 257.847656 352.332031 258.0625 351.996094 258.246094 351.632812 C 258.332031 351.464844 267.078125 334.582031 293.546875 334.574219 C 320.015625 334.582031 328.761719 351.464844 328.847656 351.632812 C 329.84375 353.625 331.847656 354.773438 333.933594 354.773438 C 334.789062 354.773438 335.652344 354.582031 336.46875 354.175781 C 339.277344 352.769531 340.414062 349.359375 339.011719 346.550781 " fill-opacity="1" fill-rule="nonzero"/></g><path fill="#145da0" d="M 242.976562 102.210938 C 246.128906 102.210938 248.683594 99.65625 248.683594 96.503906 C 248.683594 93.351562 246.128906 90.796875 242.976562 90.796875 C 239.824219 90.796875 237.269531 93.351562 237.269531 96.503906 C 237.269531 99.65625 239.824219 102.210938 242.976562 102.210938 " fill-opacity="1" fill-rule="nonzero"/><path fill="#145da0" d="M 303.640625 102.210938 C 306.792969 102.210938 309.347656 99.65625 309.347656 96.503906 C 309.347656 93.351562 306.792969 90.796875 303.640625 90.796875 C 300.488281 90.796875 297.933594 93.351562 297.933594 96.503906 C 297.933594 99.65625 300.488281 102.210938 303.640625 102.210938 " fill-opacity="1" fill-rule="nonzero"/><path fill="#145da0" d="M 242.976562 162.875 C 246.128906 162.875 248.683594 160.320312 248.683594 157.167969 C 248.683594 154.015625 246.128906 151.460938 242.976562 151.460938 C 239.824219 151.460938 237.269531 154.015625 237.269531 157.167969 C 237.269531 160.320312 239.824219 162.875 242.976562 162.875 " fill-opacity="1" fill-rule="nonzero"/><path fill="#145da0" d="M 303.640625 162.574219 C 306.792969 162.574219 309.347656 160.019531 309.347656 156.867188 C 309.347656 153.714844 306.792969 151.160156 303.640625 151.160156 C 300.488281 151.160156 297.933594 153.714844 297.933594 156.867188 C 297.933594 160.019531 300.488281 162.574219 303.640625 162.574219 " fill-opacity="1" fill-rule="nonzero"/><path fill="#145da0" d="M 206.9375 187.5 C 206.9375 190.652344 209.492188 193.207031 212.644531 193.207031 C 215.796875 193.207031 218.351562 190.652344 218.351562 187.5 C 218.351562 184.347656 215.796875 181.792969 212.644531 181.792969 C 209.492188 181.792969 206.9375 184.347656 206.9375 187.5 " fill-opacity="1" fill-rule="nonzero"/><path fill="#145da0" d="M 273.308594 193.207031 C 276.460938 193.207031 279.015625 190.652344 279.015625 187.5 C 279.015625 184.347656 276.460938 181.792969 273.308594 181.792969 C 270.15625 181.792969 267.601562 184.347656 267.601562 187.5 C 267.601562 190.652344 270.15625 193.207031 273.308594 193.207031 " fill-opacity="1" fill-rule="nonzero"/><path fill="#145da0" d="M 242.976562 223.539062 C 246.128906 223.539062 248.683594 220.984375 248.683594 217.832031 C 248.683594 214.679688 246.128906 212.125 242.976562 212.125 C 239.824219 212.125 237.269531 214.679688 237.269531 217.832031 C 237.269531 220.984375 239.824219 223.539062 242.976562 223.539062 " fill-opacity="1" fill-rule="nonzero"/><path fill="#145da0" d="M 303.640625 223.539062 C 306.792969 223.539062 309.347656 220.984375 309.347656 217.832031 C 309.347656 214.679688 306.792969 212.125 303.640625 212.125 C 300.488281 212.125 297.933594 214.679688 297.933594 217.832031 C 297.933594 220.984375 300.488281 223.539062 303.640625 223.539062 " fill-opacity="1" fill-rule="nonzero"/><path fill="#145da0" d="M 303.640625 274.292969 C 306.792969 274.292969 309.347656 271.738281 309.347656 268.585938 C 309.347656 265.433594 306.792969 262.878906 303.640625 262.878906 C 300.488281 262.878906 297.933594 265.433594 297.933594 268.585938 C 297.933594 271.738281 300.488281 274.292969 303.640625 274.292969 " fill-opacity="1" fill-rule="nonzero"/><path fill="#145da0" d="M 273.308594 132.542969 C 276.460938 132.542969 279.015625 129.988281 279.015625 126.835938 C 279.015625 123.683594 276.460938 121.128906 273.308594 121.128906 C 270.15625 121.128906 267.601562 123.683594 267.601562 126.835938 C 267.601562 129.988281 270.15625 132.542969 273.308594 132.542969 " fill-opacity="1" fill-rule="nonzero"/><path fill="#145da0" d="M 121.949219 102.210938 C 125.097656 102.210938 127.652344 99.65625 127.652344 96.503906 C 127.652344 93.351562 125.097656 90.796875 121.949219 90.796875 C 118.796875 90.796875 116.242188 93.351562 116.242188 96.503906 C 116.242188 99.65625 118.796875 102.210938 121.949219 102.210938 " fill-opacity="1" fill-rule="nonzero"/><path fill="#145da0" d="M 61.28125 102.210938 C 64.433594 102.210938 66.988281 99.65625 66.988281 96.503906 C 66.988281 93.351562 64.433594 90.796875 61.28125 90.796875 C 58.132812 90.796875 55.578125 93.351562 55.578125 96.503906 C 55.578125 99.65625 58.132812 102.210938 61.28125 102.210938 " fill-opacity="1" fill-rule="nonzero"/><path fill="#145da0" d="M 121.949219 162.875 C 125.097656 162.875 127.652344 160.320312 127.652344 157.167969 C 127.652344 154.015625 125.097656 151.460938 121.949219 151.460938 C 118.796875 151.460938 116.242188 154.015625 116.242188 157.167969 C 116.242188 160.320312 118.796875 162.875 121.949219 162.875 " fill-opacity="1" fill-rule="nonzero"/><path fill="#145da0" d="M 61.28125 162.574219 C 64.433594 162.574219 66.988281 160.019531 66.988281 156.867188 C 66.988281 153.714844 64.433594 151.160156 61.28125 151.160156 C 58.132812 151.160156 55.578125 153.714844 55.578125 156.867188 C 55.578125 160.019531 58.132812 162.574219 61.28125 162.574219 " fill-opacity="1" fill-rule="nonzero"/><path fill="#145da0" d="M 157.984375 187.5 C 157.984375 184.347656 155.429688 181.792969 152.28125 181.792969 C 149.128906 181.792969 146.574219 184.347656 146.574219 187.5 C 146.574219 190.652344 149.128906 193.207031 152.28125 193.207031 C 155.429688 193.207031 157.984375 190.652344 157.984375 187.5 " fill-opacity="1" fill-rule="nonzero"/><path fill="#145da0" d="M 91.617188 193.207031 C 94.765625 193.207031 97.320312 190.652344 97.320312 187.5 C 97.320312 184.347656 94.765625 181.792969 91.617188 181.792969 C 88.464844 181.792969 85.910156 184.347656 85.910156 187.5 C 85.910156 190.652344 88.464844 193.207031 91.617188 193.207031 " fill-opacity="1" fill-rule="nonzero"/><path fill="#145da0" d="M 121.949219 223.539062 C 125.097656 223.539062 127.652344 220.984375 127.652344 217.832031 C 127.652344 214.679688 125.097656 212.125 121.949219 212.125 C 118.796875 212.125 116.242188 214.679688 116.242188 217.832031 C 116.242188 220.984375 118.796875 223.539062 121.949219 223.539062 " fill-opacity="1" fill-rule="nonzero"/><path fill="#145da0" d="M 61.28125 223.539062 C 64.433594 223.539062 66.988281 220.984375 66.988281 217.832031 C 66.988281 214.679688 64.433594 212.125 61.28125 212.125 C 58.132812 212.125 55.578125 214.679688 55.578125 217.832031 C 55.578125 220.984375 58.132812 223.539062 61.28125 223.539062 " fill-opacity="1" fill-rule="nonzero"/><path fill="#145da0" d="M 61.28125 274.292969 C 64.433594 274.292969 66.988281 271.738281 66.988281 268.585938 C 66.988281 265.433594 64.433594 262.878906 61.28125 262.878906 C 58.132812 262.878906 55.578125 265.433594 55.578125 268.585938 C 55.578125 271.738281 58.132812 274.292969 61.28125 274.292969 " fill-opacity="1" fill-rule="nonzero"/><path fill="#145da0" d="M 91.617188 132.542969 C 94.765625 132.542969 97.320312 129.988281 97.320312 126.835938 C 97.320312 123.683594 94.765625 121.128906 91.617188 121.128906 C 88.464844 121.128906 85.910156 123.683594 85.910156 126.835938 C 85.910156 129.988281 88.464844 132.542969 91.617188 132.542969 " fill-opacity="1" fill-rule="nonzero"/></svg>