<svg xmlns="http://www.w3.org/2000/svg" xmlns:xlink="http://www.w3.org/1999/xlink" width="500" zoomAndPan="magnify" viewBox="0 0 375 374.999991" height="500" preserveAspectRatio="xMidYMid meet" version="1.0"><path fill="#145da0" d="M 87.105469 335.125 C 84.839844 332.863281 81.449219 332.863281 79.183594 335.125 L 70.136719 344.175781 L 61.085938 335.125 C 58.824219 332.863281 55.429688 332.863281 53.167969 335.125 C 50.90625 337.386719 50.90625 340.78125 53.167969 343.042969 L 62.21875 352.09375 L 53.167969 361.140625 C 50.90625 363.40625 50.90625 366.796875 53.167969 369.0625 C 55.429688 371.324219 58.824219 371.324219 61.085938 369.0625 L 70.136719 360.011719 L 79.183594 369.0625 C 81.449219 371.324219 84.839844 371.324219 87.105469 369.0625 C 89.367188 366.796875 89.367188 363.40625 87.105469 361.140625 L 78.054688 352.09375 L 87.105469 343.042969 C 89.367188 341.347656 89.367188 337.386719 87.105469 335.125 Z M 87.105469 335.125 " fill-opacity="1" fill-rule="nonzero"/><path fill="#145da0" d="M 372.738281 341.347656 L 352.941406 228.222656 C 352.941406 228.222656 352.941406 227.660156 352.941406 227.660156 C 353.507812 224.832031 354.074219 222.003906 354.074219 218.609375 L 354.074219 120.757812 C 354.074219 98.699219 337.105469 80.597656 315.609375 80.035156 C 292.988281 79.46875 274.886719 97.566406 274.886719 119.625 L 274.886719 145.644531 L 257.917969 170.53125 L 217.761719 177.320312 C 207.578125 179.015625 203.054688 187.5 203.621094 195.417969 L 130.65625 249.152344 L 127.828125 244.0625 C 125.566406 238.96875 119.910156 235.578125 114.253906 235.578125 L 78.621094 235.578125 C 72.964844 235.578125 67.875 238.96875 65.046875 244.0625 L 61.085938 254.808594 L 40.722656 254.808594 L 40.722656 247.453125 L 44.683594 247.453125 C 48.078125 247.453125 50.339844 245.191406 50.339844 241.796875 C 50.339844 238.40625 48.078125 236.140625 44.683594 236.140625 L 26.019531 236.140625 C 22.625 236.140625 20.363281 238.40625 20.363281 241.796875 C 20.363281 245.191406 22.625 247.453125 26.019531 247.453125 L 29.976562 247.453125 L 29.976562 254.808594 L 14.140625 254.808594 C 6.222656 254.808594 0 261.59375 0 268.949219 L 0 288.746094 C 0 296.664062 6.222656 302.882812 14.140625 302.882812 L 18.097656 302.882812 L 18.097656 313.066406 L 11.3125 317.023438 C 8.484375 318.15625 7.351562 321.550781 8.484375 324.378906 C 9.617188 327.207031 13.007812 328.335938 15.835938 327.207031 L 26.019531 322.117188 C 28.28125 320.984375 29.410156 319.289062 29.410156 317.023438 L 29.410156 303.449219 C 52.601562 303.449219 72.964844 303.449219 75.792969 303.449219 C 76.359375 305.148438 76.921875 306.84375 78.054688 308.539062 C 75.792969 307.976562 72.964844 307.976562 70.136719 307.976562 C 43.550781 307.976562 21.492188 330.035156 21.492188 356.617188 C 21.492188 360.011719 23.753906 362.273438 27.148438 362.273438 C 30.542969 362.273438 32.804688 360.011719 32.804688 356.617188 C 32.804688 336.253906 49.773438 319.289062 70.136719 319.289062 C 90.496094 319.289062 107.464844 336.253906 107.464844 356.617188 C 107.464844 360.011719 109.726562 362.273438 113.121094 362.273438 C 116.515625 362.273438 118.777344 360.011719 118.777344 356.617188 C 118.777344 341.910156 112.554688 329.46875 102.375 320.417969 C 110.859375 318.722656 118.210938 311.933594 120.476562 303.449219 L 130.65625 303.449219 C 134.050781 303.449219 136.3125 301.1875 136.3125 297.792969 L 136.3125 260.464844 C 136.3125 260.464844 136.3125 259.898438 136.3125 259.898438 L 209.277344 206.164062 C 212.667969 210.125 218.324219 211.820312 224.546875 210.691406 L 271.492188 202.769531 C 272.625 202.769531 274.320312 202.207031 275.453125 201.640625 L 275.453125 219.175781 C 275.453125 223.699219 274.320312 229.921875 270.363281 235.578125 L 238.121094 276.867188 C 235.292969 280.261719 234.164062 284.785156 234.164062 289.308594 L 234.164062 351.527344 C 234.164062 362.273438 243.210938 371.324219 253.960938 371.324219 C 265.269531 371.324219 273.753906 361.707031 273.753906 350.960938 L 273.753906 296.097656 L 303.734375 257.636719 C 308.824219 259.332031 313.914062 259.332031 318.4375 259.332031 L 334.277344 349.265625 C 335.972656 360.578125 347.285156 367.363281 356.898438 365.667969 C 367.648438 362.273438 375 352.09375 372.738281 341.347656 Z M 11.3125 288.746094 L 11.3125 268.949219 C 11.3125 267.816406 12.445312 266.121094 14.140625 266.121094 L 58.824219 266.121094 L 58.824219 291.574219 L 14.140625 291.574219 C 12.445312 292.136719 11.3125 290.441406 11.3125 288.746094 Z M 97.851562 309.105469 C 91.628906 309.105469 85.972656 304.015625 85.972656 297.226562 C 85.972656 290.441406 91.0625 285.351562 97.851562 285.351562 C 104.636719 285.351562 109.726562 290.441406 109.726562 297.226562 C 109.726562 304.015625 104.636719 309.105469 97.851562 309.105469 Z M 125 292.136719 L 120.476562 292.136719 C 118.210938 281.957031 109.164062 274.605469 98.417969 274.605469 C 87.667969 274.605469 78.621094 281.957031 76.359375 292.136719 L 70.703125 292.136719 L 70.703125 262.160156 L 76.921875 249.71875 C 77.488281 248.585938 78.621094 248.019531 80.316406 248.019531 L 115.949219 248.019531 C 117.082031 248.019531 118.777344 248.585938 119.34375 249.71875 L 125.566406 262.160156 L 125.566406 292.136719 Z M 303.734375 245.191406 C 301.46875 244.0625 298.640625 244.625 296.945312 246.890625 L 263.007812 290.441406 C 262.445312 291.574219 261.878906 292.703125 261.878906 293.835938 L 261.878906 350.394531 C 261.878906 354.921875 258.484375 359.445312 254.523438 359.445312 C 249.433594 360.011719 244.910156 356.050781 244.910156 350.960938 L 244.910156 288.746094 C 244.910156 287.046875 245.476562 284.785156 246.605469 283.652344 L 278.847656 242.363281 C 283.9375 236.140625 286.199219 228.222656 286.199219 219.175781 L 286.199219 189.761719 L 326.355469 130.375 C 328.054688 127.546875 327.488281 124.152344 324.660156 122.453125 C 321.832031 120.757812 318.4375 121.324219 316.742188 124.152344 L 272.625 189.761719 C 272.058594 190.894531 270.363281 192.023438 268.664062 192.023438 L 221.71875 199.945312 C 216.628906 200.507812 215.496094 196.550781 214.933594 195.417969 C 214.933594 194.289062 214.367188 189.761719 219.457031 188.632812 L 261.878906 181.277344 C 263.574219 181.277344 264.707031 180.148438 265.835938 179.015625 L 307.125 117.363281 C 308.824219 114.535156 308.257812 111.140625 305.429688 109.445312 C 302.601562 107.75 299.207031 108.316406 297.511719 111.140625 L 285.632812 128.675781 L 285.632812 119.625 C 285.632812 103.789062 299.207031 90.78125 315.046875 91.347656 C 330.316406 91.910156 342.195312 104.921875 342.195312 121.324219 L 342.195312 219.175781 C 342.195312 221.4375 341.628906 224.265625 341.0625 226.527344 C 337.667969 242.929688 319.003906 251.414062 303.734375 245.191406 Z M 354.636719 353.222656 C 350.679688 353.789062 346.152344 350.960938 345.023438 346.4375 L 329.183594 255.9375 C 335.40625 253.675781 340.496094 249.71875 344.457031 245.191406 L 361.425781 343.609375 C 362.554688 347.566406 359.726562 352.09375 354.636719 353.222656 Z M 354.636719 353.222656 " fill-opacity="1" fill-rule="nonzero"/><path fill="#145da0" d="M 312.21875 67.023438 C 329.75 67.023438 343.890625 52.882812 343.890625 35.351562 C 343.890625 17.816406 329.75 3.675781 312.21875 3.675781 C 294.683594 3.675781 280.542969 17.816406 280.542969 35.351562 C 280.542969 52.320312 294.683594 67.023438 312.21875 67.023438 Z M 312.21875 14.421875 C 323.53125 14.421875 332.578125 23.472656 332.578125 34.785156 C 332.578125 46.097656 323.53125 55.148438 312.21875 55.148438 C 300.90625 55.148438 291.855469 46.097656 291.855469 34.785156 C 291.855469 23.472656 300.90625 14.421875 312.21875 14.421875 Z M 312.21875 14.421875 " fill-opacity="1" fill-rule="nonzero"/></svg>