<svg xmlns="http://www.w3.org/2000/svg" xmlns:xlink="http://www.w3.org/1999/xlink" width="500" zoomAndPan="magnify" viewBox="0 0 375 374.999991" height="500" preserveAspectRatio="xMidYMid meet" version="1.0"><defs><clipPath id="16f3f8226d"><path d="M 143 2.34375 L 238 2.34375 L 238 117 L 143 117 Z M 143 2.34375 " clip-rule="nonzero"/></clipPath></defs><path fill="#145da0" d="M 218.738281 231.296875 L 218.738281 218.804688 C 259.574219 218.804688 277.589844 207.457031 277.769531 207.339844 L 279.804688 206.027344 L 282.226562 206.398438 L 312.429688 211.433594 L 312.429688 138.988281 L 286.019531 144.265625 L 247.5 116.75 C 243.71875 114.054688 239.269531 112.628906 234.632812 112.628906 C 222.425781 112.628906 212.496094 122.558594 212.496094 134.765625 L 212.496094 160.195312 C 212.496094 164.960938 216.378906 168.847656 221.148438 168.847656 C 224.699219 168.847656 227.859375 166.710938 229.175781 163.410156 L 237.925781 141.546875 L 249.527344 146.183594 L 240.777344 168.046875 C 237.542969 176.121094 229.839844 181.339844 221.148438 181.339844 C 209.488281 181.339844 199.996094 171.855469 199.996094 160.195312 L 199.996094 134.765625 C 199.996094 115.671875 215.535156 100.136719 234.625 100.136719 C 241.882812 100.136719 248.84375 102.371094 254.757812 106.585938 L 288.871094 130.953125 L 324.921875 123.742188 L 324.921875 226.179688 L 282.375 219.085938 C 275.933594 222.515625 255.828125 231.296875 218.746094 231.296875 Z M 218.738281 231.296875 " fill-opacity="1" fill-rule="nonzero"/><path fill="#145da0" d="M 218.738281 231.296875 L 187.507812 231.296875 C 170.285156 231.296875 156.273438 217.285156 156.273438 200.066406 L 156.273438 150.101562 C 156.273438 132.878906 170.285156 118.871094 187.507812 118.871094 L 207.929688 118.871094 L 207.929688 131.359375 L 187.507812 131.359375 C 177.171875 131.359375 168.765625 139.765625 168.765625 150.101562 L 168.765625 200.066406 C 168.765625 210.398438 177.171875 218.804688 187.507812 218.804688 L 218.738281 218.804688 C 229.070312 218.804688 237.476562 210.398438 237.476562 200.066406 L 237.476562 163.402344 L 249.96875 163.402344 L 249.96875 200.066406 C 249.96875 217.285156 235.957031 231.296875 218.738281 231.296875 Z M 218.738281 231.296875 " fill-opacity="1" fill-rule="nonzero"/><path fill="#145da0" d="M 274.949219 181.332031 C 246.933594 181.332031 233.632812 161.722656 233.078125 160.882812 L 243.5 153.992188 C 243.890625 154.5625 253.847656 168.839844 274.949219 168.839844 Z M 274.949219 181.332031 " fill-opacity="1" fill-rule="nonzero"/><path fill="#145da0" d="M 318.667969 137.609375 L 374.878906 137.609375 L 374.878906 150.101562 L 318.667969 150.101562 Z M 318.667969 137.609375 " fill-opacity="1" fill-rule="nonzero"/><path fill="#145da0" d="M 318.667969 200.066406 L 374.878906 200.066406 L 374.878906 212.554688 L 318.667969 212.554688 Z M 318.667969 200.066406 " fill-opacity="1" fill-rule="nonzero"/><g clip-path="url(#16f3f8226d)"><path fill="#145da0" d="M 214.90625 116.882812 C 214.113281 116.382812 195.390625 104.480469 182.308594 84.859375 L 177.277344 77.308594 L 186.121094 75.304688 C 208.273438 70.277344 224.980469 48.734375 224.980469 25.183594 C 224.980469 24.824219 224.980469 24.460938 224.96875 24.105469 C 215.816406 28.867188 205.042969 31.429688 193.75 31.429688 C 173.085938 31.429688 156.273438 48.242188 156.273438 68.90625 C 156.273438 70.671875 156.445312 72.601562 156.789062 74.789062 L 144.453125 76.738281 C 144.003906 73.886719 143.785156 71.328125 143.785156 68.898438 C 143.785156 41.351562 166.199219 18.933594 193.75 18.933594 C 205.988281 18.933594 217.78125 15.152344 226.109375 8.566406 L 234.007812 2.316406 L 236.09375 12.171875 C 237.003906 16.484375 237.464844 20.863281 237.464844 25.183594 C 237.464844 51.679688 221.210938 75.382812 197.738281 84.734375 C 208.6875 98.128906 221.394531 106.210938 221.542969 106.300781 L 214.890625 116.875 Z M 214.90625 116.882812 " fill-opacity="1" fill-rule="nonzero"/></g><path fill="#145da0" d="M 0.132812 106.378906 L 31.363281 106.378906 L 31.363281 118.871094 L 0.132812 118.871094 Z M 0.132812 106.378906 " fill-opacity="1" fill-rule="nonzero"/><path fill="#145da0" d="M 29.746094 19.910156 L 38.578125 11.078125 L 64.148438 36.648438 L 55.316406 45.480469 Z M 29.746094 19.910156 " fill-opacity="1" fill-rule="nonzero"/><path fill="#145da0" d="M 29.679688 205.40625 L 55.375 179.707031 L 64.210938 188.539062 L 38.511719 214.238281 Z M 29.679688 205.40625 " fill-opacity="1" fill-rule="nonzero"/><path fill="#145da0" d="M 115.789062 334.121094 L 113.449219 321.800781 C 112.851562 318.65625 112.554688 315.53125 112.554688 312.492188 C 112.554688 280.753906 134.253906 266.066406 153.402344 253.109375 C 166.589844 244.183594 179.054688 235.753906 184.511719 222.65625 L 196.042969 227.464844 C 189.148438 244.007812 174.535156 253.894531 160.398438 263.457031 C 143.710938 274.753906 127.863281 285.476562 125.375 306.582031 C 134.195312 299.390625 144.5 293.484375 155.75 289.21875 L 160.179688 300.902344 C 145.964844 306.289062 133.527344 314.5625 124.207031 324.839844 L 115.78125 334.128906 Z M 115.789062 334.121094 " fill-opacity="1" fill-rule="nonzero"/><path fill="#145da0" d="M 181.265625 349.433594 L 171.882812 343.984375 C 158.40625 336.15625 150.03125 321.695312 150.03125 306.242188 C 150.03125 296.382812 153.410156 286.703125 159.550781 279.007812 L 169.320312 286.789062 C 164.867188 292.363281 162.523438 299.089844 162.523438 306.238281 C 162.523438 313.003906 164.785156 319.515625 168.773438 324.828125 C 168.792969 319.871094 169.625 315.011719 171.265625 310.394531 L 183.039062 314.5625 C 181.863281 317.890625 181.265625 321.390625 181.265625 324.96875 Z M 181.265625 349.433594 " fill-opacity="1" fill-rule="nonzero"/><path fill="#145da0" d="M 218.738281 320.457031 L 211 318.550781 C 199.765625 315.796875 191.351562 306.476562 185.988281 290.863281 L 197.796875 286.800781 C 200.089844 293.464844 202.914062 298.5 206.246094 301.851562 L 206.246094 293.753906 C 206.246094 265.890625 212.25 238.96875 222.296875 221.714844 L 233.09375 228.007812 C 224.238281 243.195312 218.738281 268.386719 218.738281 293.753906 Z M 218.738281 320.457031 " fill-opacity="1" fill-rule="nonzero"/><path fill="#145da0" d="M 12.625 318.734375 L 62.589844 318.734375 L 62.589844 331.226562 L 12.625 331.226562 Z M 12.625 318.734375 " fill-opacity="1" fill-rule="nonzero"/><path fill="#145da0" d="M 268.703125 324.984375 L 374.878906 324.984375 L 374.878906 337.472656 L 268.703125 337.472656 Z M 268.703125 324.984375 " fill-opacity="1" fill-rule="nonzero"/><path fill="#145da0" d="M 182 374.949219 C 175.101562 374.949219 170.910156 372.453125 163.960938 368.316406 L 159.335938 365.585938 C 151.089844 360.808594 143.925781 354.304688 138.289062 346.535156 C 137.515625 347.394531 136.789062 348.210938 136.101562 348.984375 C 128.675781 357.292969 124.199219 362.308594 114.339844 362.449219 C 103.347656 362.347656 94.289062 354.949219 92.1875 343.839844 L 90.480469 334.953125 C 87.550781 319.804688 87.5 319.371094 87.542969 303.019531 C 82.511719 304.671875 75.871094 306.238281 68.824219 306.238281 L 0.132812 306.238281 L 0.132812 293.746094 L 68.835938 293.746094 C 80.144531 293.746094 90.792969 288.28125 90.894531 288.222656 L 100.0625 283.371094 L 100.042969 302.597656 C 100.007812 313.09375 100.910156 323.085938 102.75 332.578125 L 104.464844 341.519531 C 105.433594 346.664062 109.175781 349.960938 114.015625 349.960938 L 114.164062 349.960938 C 118.269531 349.902344 119.574219 348.738281 126.785156 340.664062 C 128.953125 338.234375 131.507812 335.375 134.671875 332.050781 L 140.523438 325.886719 L 144.65625 333.324219 C 149.644531 342.308594 156.890625 349.726562 165.601562 354.777344 C 167.382812 355.8125 168.949219 356.742188 170.351562 357.578125 C 176.96875 361.519531 178.660156 362.449219 182 362.449219 C 188.480469 362.449219 193.75 357.175781 193.75 350.691406 L 193.75 323.851562 L 202.503906 327.703125 C 206.441406 329.433594 212.460938 331.21875 215.757812 331.21875 C 224.285156 331.21875 231.222656 324.273438 231.222656 315.753906 L 231.222656 301.714844 C 231.300781 290.414062 240.570312 281.253906 251.871094 281.253906 C 258.320312 281.253906 263.121094 284.523438 267.34375 287.40625 C 272.113281 290.660156 276.621094 293.746094 284.394531 293.746094 L 374.875 293.746094 L 374.875 306.238281 L 284.394531 306.238281 C 272.769531 306.238281 265.566406 301.320312 260.304688 297.726562 C 256.582031 295.179688 254.351562 293.746094 251.871094 293.746094 C 247.402344 293.746094 243.738281 297.34375 243.714844 301.761719 L 243.714844 315.753906 C 243.714844 331.171875 231.171875 343.710938 215.757812 343.710938 C 212.808594 343.710938 209.402344 343.0625 206.238281 342.195312 L 206.238281 350.6875 C 206.238281 364.054688 195.367188 374.933594 181.992188 374.933594 Z M 182 374.949219 " fill-opacity="1" fill-rule="nonzero"/><path fill="#145da0" d="M 93.820312 150.101562 C 83.570312 150.101562 73.613281 147.546875 65.789062 142.910156 L 59.640625 139.257812 L 64.089844 133.660156 C 68.960938 127.507812 71.941406 118.992188 75.105469 109.964844 C 82.484375 88.890625 91.664062 62.664062 131.300781 62.664062 L 131.300781 75.152344 C 100.53125 75.152344 94.210938 93.199219 86.894531 114.09375 C 84.40625 121.214844 81.847656 128.507812 78.179688 134.984375 C 82.917969 136.699219 88.285156 137.617188 93.824219 137.617188 C 111.839844 137.617188 121.679688 127.601562 131.207031 117.914062 C 139.796875 109.171875 148.683594 100.140625 162.53125 100.140625 C 176.378906 100.140625 189.234375 109.78125 192.78125 123.585938 L 180.679688 126.695312 C 178.554688 118.421875 171.09375 112.640625 162.53125 112.640625 C 153.96875 112.640625 147.824219 118.835938 140.113281 126.683594 C 129.851562 137.128906 117.074219 150.121094 93.824219 150.121094 Z M 93.820312 150.101562 " fill-opacity="1" fill-rule="nonzero"/></svg>