<svg xmlns="http://www.w3.org/2000/svg" xmlns:xlink="http://www.w3.org/1999/xlink" width="1200" zoomAndPan="magnify" viewBox="0 0 900 225" height="300" preserveAspectRatio="xMidYMid meet" version="1.0"><defs><g/><clipPath id="b1a5520697"><path d="M 337.375 82.804688 L 423.625 82.804688 L 423.625 125.554688 L 337.375 125.554688 Z M 337.375 82.804688 " clip-rule="nonzero"/></clipPath></defs><g clip-path="url(#b1a5520697)"><path fill="#eb5050" d="M 423.386719 125.5625 C 422.140625 125.78125 419.683594 125.828125 419.492188 125.621094 C 416.9375 122.835938 414.367188 120.0625 411.859375 117.234375 C 411.429688 116.75 411.046875 116.402344 410.578125 116.34375 C 410.054688 116.273438 409.621094 116.566406 409.449219 116.679688 C 407.890625 117.707031 403.472656 123.65625 403.25 123.953125 C 405.136719 120.085938 406.460938 117.175781 406.925781 116.089844 C 407.0625 115.773438 407.152344 115.117188 407.277344 114.292969 C 407.339844 113.90625 407.230469 113.34375 406.972656 113.074219 C 403.488281 109.414062 399.964844 105.796875 396.460938 102.164062 C 396.082031 101.773438 395.796875 101.714844 395.390625 102.152344 C 392.429688 105.339844 389.457031 108.511719 386.472656 111.671875 C 386.050781 112.117188 385.992188 112.507812 386.152344 113.109375 C 387.042969 116.46875 387.875 119.84375 388.71875 123.214844 C 388.757812 123.367188 388.742188 123.539062 388.769531 123.914062 C 386.300781 121.261719 383.96875 118.75 381.632812 116.238281 C 381.449219 116.042969 381.269531 115.84375 381.085938 115.652344 C 379.925781 114.433594 379.949219 114.472656 378.453125 115.308594 C 374.453125 117.542969 370.429688 119.742188 366.414062 121.957031 C 366.242188 122.050781 366.0625 122.121094 365.78125 122.097656 C 369.441406 118.113281 373.097656 114.132812 376.753906 110.148438 C 378.929688 109.617188 381.105469 109.082031 383.28125 108.550781 C 378.765625 102.347656 374.339844 96.277344 369.785156 90.027344 C 364.621094 98.5 359.585938 106.765625 354.4375 115.222656 C 353.398438 113.011719 352.445312 110.984375 351.417969 108.800781 C 346.765625 114.023438 342.199219 119.148438 337.636719 124.269531 C 337.558594 124.226562 337.484375 124.1875 337.40625 124.148438 C 342.152344 116.527344 346.898438 108.90625 351.640625 101.289062 C 355.519531 101.164062 357.554688 101.097656 357.554688 101.097656 C 357.554688 101.097656 358.035156 101.105469 358.335938 100.941406 C 358.539062 100.828125 358.703125 100.652344 358.859375 100.398438 C 361.695312 95.742188 364.554688 91.101562 367.40625 86.453125 C 368.121094 85.292969 368.835938 84.132812 369.652344 82.804688 C 375.550781 90.34375 381.371094 97.777344 387.28125 105.320312 C 390.394531 102.636719 393.394531 100.046875 396.488281 97.378906 C 405.425781 106.738281 414.304688 116.046875 423.386719 125.5625 Z M 423.386719 125.5625 " fill-opacity="1" fill-rule="nonzero"/></g><g fill="#2a4b73" fill-opacity="1"><g transform="translate(423.423318, 125.170239)"><g><path d="M 26.425781 -10.796875 C 26.425781 -8.964844 26.425781 -7.417969 26.472656 -5.960938 C 25.628906 -7.371094 24.734375 -8.777344 23.84375 -10.183594 L 8.824219 -33.417969 L 3.988281 -33.417969 L 3.988281 0 L 8.121094 0 L 8.121094 -22.625 C 8.121094 -24.359375 8.121094 -25.910156 8.074219 -27.316406 C 8.917969 -25.957031 9.761719 -24.546875 10.65625 -23.1875 L 25.582031 0 L 30.554688 0 L 30.554688 -33.417969 L 26.425781 -33.417969 Z M 26.425781 -10.796875 "/></g></g></g><g fill="#2a4b73" fill-opacity="1"><g transform="translate(457.965126, 125.170239)"><g><path d="M 18.773438 0.796875 C 28.164062 0.796875 34.59375 -6.382812 34.59375 -16.710938 C 34.59375 -26.847656 28.164062 -34.03125 18.773438 -34.03125 C 9.433594 -34.03125 3.003906 -26.847656 3.003906 -16.710938 C 3.003906 -6.476562 9.433594 0.796875 18.773438 0.796875 Z M 18.820312 -3.097656 C 12.15625 -3.097656 7.464844 -8.402344 7.464844 -16.710938 C 7.464844 -24.921875 12.15625 -30.132812 18.820312 -30.132812 C 25.441406 -30.132812 30.132812 -24.921875 30.132812 -16.710938 C 30.132812 -8.308594 25.535156 -3.097656 18.820312 -3.097656 Z M 18.820312 -3.097656 "/></g></g></g><g fill="#2a4b73" fill-opacity="1"><g transform="translate(495.557492, 125.170239)"><g><path d="M 24.03125 -17.976562 C 27.128906 -19.246094 28.867188 -21.777344 28.867188 -25.253906 C 28.867188 -30.414062 25.160156 -33.417969 19.054688 -33.417969 L 3.988281 -33.417969 L 3.988281 0 L 19.386719 0 C 26.332031 0 30.414062 -3.660156 30.414062 -9.714844 C 30.414062 -13.988281 28.351562 -16.664062 24.03125 -17.976562 Z M 18.539062 -29.617188 C 22.34375 -29.617188 24.40625 -27.976562 24.40625 -24.640625 C 24.40625 -21.214844 22.203125 -19.246094 18.117188 -19.246094 L 8.355469 -19.246094 L 8.355469 -29.617188 Z M 8.355469 -3.800781 L 8.355469 -15.582031 L 19.054688 -15.582031 C 23.5625 -15.582031 25.957031 -13.566406 25.957031 -9.714844 C 25.957031 -5.820312 23.609375 -3.800781 19.054688 -3.800781 Z M 8.355469 -3.800781 "/></g></g></g><g fill="#2a4b73" fill-opacity="1"><g transform="translate(529.489182, 125.170239)"><g><path d="M 18.773438 0.796875 C 28.164062 0.796875 34.59375 -6.382812 34.59375 -16.710938 C 34.59375 -26.847656 28.164062 -34.03125 18.773438 -34.03125 C 9.433594 -34.03125 3.003906 -26.847656 3.003906 -16.710938 C 3.003906 -6.476562 9.433594 0.796875 18.773438 0.796875 Z M 18.820312 -3.097656 C 12.15625 -3.097656 7.464844 -8.402344 7.464844 -16.710938 C 7.464844 -24.921875 12.15625 -30.132812 18.820312 -30.132812 C 25.441406 -30.132812 30.132812 -24.921875 30.132812 -16.710938 C 30.132812 -8.308594 25.535156 -3.097656 18.820312 -3.097656 Z M 18.820312 -3.097656 "/></g></g></g><g fill="#2a4b73" fill-opacity="1"><g transform="translate(339.156917, 141.575686)"><g><path d="M 2.789062 -11.15625 L 1.332031 -11.15625 L 1.332031 0 L 8.601562 0 L 8.601562 -1.269531 L 2.789062 -1.269531 Z M 2.789062 -11.15625 "/></g></g></g><g fill="#2a4b73" fill-opacity="1"><g transform="translate(348.46315, 141.575686)"><g/></g></g><g fill="#2a4b73" fill-opacity="1"><g transform="translate(352.69302, 141.575686)"><g/></g></g><g fill="#2a4b73" fill-opacity="1"><g transform="translate(356.922891, 141.575686)"><g/></g></g><g fill="#2a4b73" fill-opacity="1"><g transform="translate(361.158019, 141.575686)"><g><path d="M 8.382812 -1.066406 C 7.847656 -1.066406 7.675781 -1.238281 7.675781 -1.769531 L 7.675781 -5.71875 C 7.675781 -7.488281 6.515625 -8.304688 4.511719 -8.304688 C 2.429688 -8.304688 1.285156 -7.457031 1.144531 -5.671875 L 2.570312 -5.671875 C 2.664062 -6.753906 3.242188 -7.113281 4.402344 -7.113281 C 5.65625 -7.113281 6.21875 -6.707031 6.21875 -5.859375 L 6.21875 -5.546875 C 6.21875 -5.171875 6.03125 -4.980469 5.640625 -4.933594 L 3.570312 -4.667969 C 1.613281 -4.417969 0.816406 -3.476562 0.816406 -2.144531 C 0.816406 -0.65625 1.878906 0.203125 3.523438 0.203125 C 4.902344 0.203125 5.9375 -0.40625 6.453125 -1.191406 C 6.515625 -0.390625 6.988281 0 7.847656 0 L 8.617188 0 L 8.617188 -1.066406 Z M 3.792969 -0.910156 C 2.851562 -0.910156 2.242188 -1.378906 2.242188 -2.210938 C 2.242188 -2.929688 2.679688 -3.429688 3.808594 -3.601562 L 6.21875 -3.964844 L 6.21875 -2.835938 C 6.21875 -1.800781 5.09375 -0.910156 3.792969 -0.910156 Z M 3.792969 -0.910156 "/></g></g></g><g fill="#2a4b73" fill-opacity="1"><g transform="translate(370.088664, 141.575686)"><g/></g></g><g fill="#2a4b73" fill-opacity="1"><g transform="translate(374.318535, 141.575686)"><g/></g></g><g fill="#2a4b73" fill-opacity="1"><g transform="translate(378.548405, 141.575686)"><g/></g></g><g fill="#2a4b73" fill-opacity="1"><g transform="translate(382.783533, 141.575686)"><g><path d="M 5.3125 -8.289062 C 4.121094 -8.289062 3.148438 -7.800781 2.601562 -6.941406 L 2.601562 -8.085938 L 1.253906 -8.085938 L 1.253906 0 L 2.695312 0 L 2.695312 -4.496094 C 2.695312 -6.421875 3.886719 -7.035156 4.996094 -7.035156 C 6.09375 -7.035156 6.613281 -6.4375 6.613281 -5.328125 L 6.613281 0 L 8.054688 0 L 8.054688 -5.609375 C 8.054688 -7.316406 7.003906 -8.289062 5.3125 -8.289062 Z M 5.3125 -8.289062 "/></g></g></g><g fill="#2a4b73" fill-opacity="1"><g transform="translate(392.089766, 141.575686)"><g/></g></g><g fill="#2a4b73" fill-opacity="1"><g transform="translate(396.319636, 141.575686)"><g/></g></g><g fill="#2a4b73" fill-opacity="1"><g transform="translate(400.549507, 141.575686)"><g/></g></g><g fill="#2a4b73" fill-opacity="1"><g transform="translate(404.784638, 141.575686)"><g><path d="M 6.722656 -7.113281 C 6.203125 -7.816406 5.328125 -8.257812 4.277344 -8.257812 C 2.226562 -8.257812 0.785156 -6.613281 0.785156 -4.167969 C 0.785156 -1.660156 2.113281 0.171875 4.308594 0.171875 C 5.484375 0.171875 6.421875 -0.4375 6.910156 -1.285156 L 6.910156 0 L 8.164062 0 L 8.164062 -11.15625 L 6.722656 -11.15625 Z M 4.449219 -1.066406 C 3.054688 -1.066406 2.226562 -2.289062 2.226562 -4.167969 C 2.226562 -6.015625 3.085938 -7.019531 4.480469 -7.019531 C 5.828125 -7.019531 6.800781 -6.046875 6.800781 -4.136719 C 6.800781 -2.226562 5.796875 -1.066406 4.449219 -1.066406 Z M 4.449219 -1.066406 "/></g></g></g><g fill="#2a4b73" fill-opacity="1"><g transform="translate(414.207717, 141.575686)"><g/></g></g><g fill="#2a4b73" fill-opacity="1"><g transform="translate(418.437588, 141.575686)"><g/></g></g><g fill="#2a4b73" fill-opacity="1"><g transform="translate(422.667459, 141.575686)"><g/></g></g><g fill="#2a4b73" fill-opacity="1"><g transform="translate(426.902589, 141.575686)"><g><path d="M 3.980469 0.203125 C 6.109375 0.203125 7.363281 -0.769531 7.363281 -2.351562 C 7.363281 -3.523438 6.660156 -4.261719 4.980469 -4.636719 L 3.414062 -4.980469 C 2.460938 -5.1875 2.160156 -5.546875 2.160156 -6.0625 C 2.160156 -6.785156 2.773438 -7.128906 3.792969 -7.128906 C 4.933594 -7.128906 5.546875 -6.660156 5.703125 -5.734375 L 7.128906 -5.796875 C 6.894531 -7.488281 5.640625 -8.273438 3.839844 -8.273438 C 1.847656 -8.273438 0.832031 -7.347656 0.832031 -5.9375 C 0.832031 -4.792969 1.503906 -4.074219 3.070312 -3.746094 L 4.699219 -3.398438 C 5.546875 -3.226562 5.984375 -2.867188 5.984375 -2.226562 C 5.984375 -1.457031 5.359375 -0.957031 4.042969 -0.957031 C 2.804688 -0.957031 2.128906 -1.425781 1.988281 -2.554688 L 0.625 -2.492188 C 0.816406 -0.6875 1.957031 0.203125 3.980469 0.203125 Z M 3.980469 0.203125 "/></g></g></g><g fill="#2a4b73" fill-opacity="1"><g transform="translate(434.814973, 141.575686)"><g/></g></g><g fill="#2a4b73" fill-opacity="1"><g transform="translate(439.044844, 141.575686)"><g/></g></g><g fill="#2a4b73" fill-opacity="1"><g transform="translate(443.274715, 141.575686)"><g/></g></g><g fill="#2a4b73" fill-opacity="1"><g transform="translate(447.50984, 141.575686)"><g><path d="M 4.527344 0.203125 C 6.566406 0.203125 7.738281 -0.925781 8.023438 -2.820312 L 6.675781 -2.820312 C 6.453125 -1.675781 5.796875 -1.003906 4.605469 -1.003906 C 3.070312 -1.003906 2.226562 -2.128906 2.226562 -4.042969 C 2.226562 -5.953125 2.992188 -7.082031 4.621094 -7.082031 C 5.75 -7.082031 6.4375 -6.535156 6.660156 -5.4375 L 8.023438 -5.4375 C 7.738281 -7.300781 6.46875 -8.289062 4.605469 -8.289062 C 2.273438 -8.289062 0.785156 -6.707031 0.785156 -3.980469 C 0.785156 -1.253906 2.273438 0.203125 4.527344 0.203125 Z M 4.527344 0.203125 "/></g></g></g><g fill="#2a4b73" fill-opacity="1"><g transform="translate(456.240171, 141.575686)"><g/></g></g><g fill="#2a4b73" fill-opacity="1"><g transform="translate(460.470042, 141.575686)"><g/></g></g><g fill="#2a4b73" fill-opacity="1"><g transform="translate(464.699913, 141.575686)"><g/></g></g><g fill="#2a4b73" fill-opacity="1"><g transform="translate(468.935043, 141.575686)"><g><path d="M 8.382812 -1.066406 C 7.847656 -1.066406 7.675781 -1.238281 7.675781 -1.769531 L 7.675781 -5.71875 C 7.675781 -7.488281 6.515625 -8.304688 4.511719 -8.304688 C 2.429688 -8.304688 1.285156 -7.457031 1.144531 -5.671875 L 2.570312 -5.671875 C 2.664062 -6.753906 3.242188 -7.113281 4.402344 -7.113281 C 5.65625 -7.113281 6.21875 -6.707031 6.21875 -5.859375 L 6.21875 -5.546875 C 6.21875 -5.171875 6.03125 -4.980469 5.640625 -4.933594 L 3.570312 -4.667969 C 1.613281 -4.417969 0.816406 -3.476562 0.816406 -2.144531 C 0.816406 -0.65625 1.878906 0.203125 3.523438 0.203125 C 4.902344 0.203125 5.9375 -0.40625 6.453125 -1.191406 C 6.515625 -0.390625 6.988281 0 7.847656 0 L 8.617188 0 L 8.617188 -1.066406 Z M 3.792969 -0.910156 C 2.851562 -0.910156 2.242188 -1.378906 2.242188 -2.210938 C 2.242188 -2.929688 2.679688 -3.429688 3.808594 -3.601562 L 6.21875 -3.964844 L 6.21875 -2.835938 C 6.21875 -1.800781 5.09375 -0.910156 3.792969 -0.910156 Z M 3.792969 -0.910156 "/></g></g></g><g fill="#2a4b73" fill-opacity="1"><g transform="translate(477.865688, 141.575686)"><g/></g></g><g fill="#2a4b73" fill-opacity="1"><g transform="translate(482.095559, 141.575686)"><g/></g></g><g fill="#2a4b73" fill-opacity="1"><g transform="translate(486.32543, 141.575686)"><g/></g></g><g fill="#2a4b73" fill-opacity="1"><g transform="translate(490.560555, 141.575686)"><g><path d="M 5.15625 -8.257812 C 3.964844 -8.257812 2.976562 -7.675781 2.507812 -6.785156 L 2.507812 -8.085938 L 1.253906 -8.085938 L 1.253906 3.195312 L 2.695312 3.195312 L 2.695312 -0.988281 C 3.210938 -0.296875 4.058594 0.171875 5.09375 0.171875 C 7.285156 0.171875 8.632812 -1.722656 8.632812 -4.230469 C 8.632812 -6.675781 7.207031 -8.257812 5.15625 -8.257812 Z M 4.949219 -1.066406 C 3.601562 -1.066406 2.617188 -2.226562 2.617188 -4.136719 C 2.617188 -6.046875 3.601562 -7.019531 4.949219 -7.019531 C 6.34375 -7.019531 7.191406 -6.078125 7.191406 -4.230469 C 7.191406 -2.351562 6.34375 -1.066406 4.949219 -1.066406 Z M 4.949219 -1.066406 "/></g></g></g><g fill="#2a4b73" fill-opacity="1"><g transform="translate(499.983639, 141.575686)"><g/></g></g><g fill="#2a4b73" fill-opacity="1"><g transform="translate(504.21351, 141.575686)"><g/></g></g><g fill="#2a4b73" fill-opacity="1"><g transform="translate(508.443381, 141.575686)"><g/></g></g><g fill="#2a4b73" fill-opacity="1"><g transform="translate(512.678506, 141.575686)"><g><path d="M 2.695312 -9.605469 L 2.695312 -11.15625 L 1.253906 -11.15625 L 1.253906 -9.605469 Z M 2.695312 0 L 2.695312 -8.085938 L 1.253906 -8.085938 L 1.253906 0 Z M 2.695312 0 "/></g></g></g><g fill="#2a4b73" fill-opacity="1"><g transform="translate(516.634698, 141.575686)"><g/></g></g><g fill="#2a4b73" fill-opacity="1"><g transform="translate(520.864569, 141.575686)"><g/></g></g><g fill="#2a4b73" fill-opacity="1"><g transform="translate(525.09444, 141.575686)"><g/></g></g><g fill="#2a4b73" fill-opacity="1"><g transform="translate(529.329571, 141.575686)"><g><path d="M 5.3125 -8.289062 C 4.121094 -8.289062 3.148438 -7.800781 2.601562 -6.941406 L 2.601562 -8.085938 L 1.253906 -8.085938 L 1.253906 0 L 2.695312 0 L 2.695312 -4.496094 C 2.695312 -6.421875 3.886719 -7.035156 4.996094 -7.035156 C 6.09375 -7.035156 6.613281 -6.4375 6.613281 -5.328125 L 6.613281 0 L 8.054688 0 L 8.054688 -5.609375 C 8.054688 -7.316406 7.003906 -8.289062 5.3125 -8.289062 Z M 5.3125 -8.289062 "/></g></g></g><g fill="#2a4b73" fill-opacity="1"><g transform="translate(538.6358, 141.575686)"><g/></g></g><g fill="#2a4b73" fill-opacity="1"><g transform="translate(542.865671, 141.575686)"><g/></g></g><g fill="#2a4b73" fill-opacity="1"><g transform="translate(547.095542, 141.575686)"><g/></g></g><g fill="#2a4b73" fill-opacity="1"><g transform="translate(551.330672, 141.575686)"><g><path d="M 6.894531 -6.832031 C 6.40625 -7.707031 5.453125 -8.257812 4.277344 -8.257812 C 2.226562 -8.257812 0.785156 -6.613281 0.785156 -4.167969 C 0.785156 -1.660156 2.113281 0.171875 4.308594 0.171875 C 5.4375 0.171875 6.34375 -0.390625 6.847656 -1.175781 L 6.847656 -0.125 C 6.847656 1.566406 6.15625 2.242188 4.496094 2.242188 C 3.351562 2.242188 2.664062 1.925781 2.445312 1.019531 L 1.035156 1.019531 C 1.253906 2.664062 2.570312 3.382812 4.449219 3.382812 C 6.738281 3.382812 8.242188 2.335938 8.242188 -0.265625 L 8.242188 -8.085938 L 6.894531 -8.085938 Z M 4.449219 -1.066406 C 3.054688 -1.066406 2.226562 -2.289062 2.226562 -4.167969 C 2.226562 -6.015625 3.085938 -7.019531 4.480469 -7.019531 C 5.828125 -7.019531 6.800781 -6.046875 6.800781 -4.136719 C 6.800781 -2.226562 5.796875 -1.066406 4.449219 -1.066406 Z M 4.449219 -1.066406 "/></g></g></g></svg>