<svg xmlns="http://www.w3.org/2000/svg" xmlns:xlink="http://www.w3.org/1999/xlink" width="1200" zoomAndPan="magnify" viewBox="0 0 900 374.999991" height="500" preserveAspectRatio="xMidYMid meet" version="1.0"><defs><g/></defs><path fill="#2a4b73" d="M 217.179688 238.199219 C 217.179688 238.199219 290.164062 180.195312 303.097656 184.757812 C 316.03125 189.324219 349.882812 136.074219 360.53125 144.820312 C 371.179688 153.570312 373.464844 169.925781 384.492188 162.699219 C 395.523438 155.472656 457.519531 88.148438 469.691406 101.84375 C 481.863281 115.535156 510.011719 153.570312 524.464844 150.90625 C 538.917969 148.246094 544.621094 169.046875 554.894531 169.105469 C 565.160156 169.164062 576.191406 140.640625 586.84375 147.484375 C 597.492188 154.332031 611.566406 168.027344 622.972656 177.914062 C 634.386719 187.800781 686.496094 239.910156 678.886719 238.199219 C 671.28125 236.488281 659.109375 215.1875 643.132812 214.808594 C 627.160156 214.429688 622.972656 208.34375 632.863281 218.609375 C 642.753906 228.882812 655.683594 242.953125 637.425781 227.742188 C 619.171875 212.527344 616.890625 216.332031 602.433594 203.015625 C 587.980469 189.703125 589.882812 182.480469 573.527344 180.195312 C 557.171875 177.914062 551.28125 174.679688 559.644531 183.808594 C 568.015625 192.9375 573.339844 200.734375 573.339844 200.734375 C 573.339844 200.734375 582.46875 214.429688 569.535156 200.734375 C 556.601562 187.042969 552.039062 182.097656 546.90625 180.195312 C 541.765625 178.292969 538.15625 168.59375 537.96875 167.261719 C 537.773438 165.929688 536.632812 155.09375 528.078125 155.09375 C 519.519531 155.09375 516.855469 155.28125 516.855469 158.519531 C 516.855469 161.746094 508.296875 157.941406 505.636719 155.664062 C 502.976562 153.378906 466.457031 103.933594 463.226562 109.832031 C 459.992188 115.726562 461.894531 115.914062 461.894531 120.859375 C 461.894531 125.804688 472.546875 131.890625 476.917969 140.640625 C 481.292969 149.386719 476.347656 141.015625 481.863281 151.859375 C 487.378906 162.699219 492.703125 166.691406 479.390625 157.371094 C 466.082031 148.058594 462.085938 133.222656 456.191406 135.695312 C 450.292969 138.167969 455.238281 137.214844 452.199219 145.390625 C 449.15625 153.570312 455.046875 145.390625 454.859375 157.183594 C 454.667969 168.976562 472.167969 166.027344 481.292969 180.292969 C 490.421875 194.550781 492.988281 195.695312 500.691406 200.257812 C 508.394531 204.824219 518.089844 212.527344 509.535156 208.246094 C 500.976562 203.96875 485 202.539062 477.015625 195.980469 C 469.027344 189.417969 465.886719 191.988281 465.03125 198.546875 C 464.179688 205.109375 477.300781 202.828125 476.160156 209.101562 C 475.019531 215.378906 481.007812 213.378906 494.988281 229.925781 C 508.964844 246.472656 511.816406 244.476562 498.40625 238.199219 C 485 231.925781 482.71875 222.511719 469.027344 219.089844 C 455.332031 215.664062 454.476562 212.527344 439.644531 208.53125 C 424.808594 204.539062 434.507812 227.359375 422.527344 215.664062 C 410.546875 203.96875 395.429688 187.707031 387.15625 183.144531 C 378.882812 178.578125 379.167969 182 371.75 175.15625 C 364.335938 168.3125 359.199219 163.933594 362.335938 171.398438 C 365.476562 178.863281 372.035156 185.425781 375.746094 193.699219 C 379.453125 201.96875 374.890625 199.546875 377.597656 203.539062 C 380.308594 207.535156 381.59375 208.390625 382.734375 211.957031 C 383.875 215.523438 383.730469 215.808594 379.597656 211.671875 C 375.460938 207.535156 373.746094 207.390625 373.320312 204.539062 C 372.890625 201.683594 372.890625 205.109375 366.046875 200.546875 C 359.199219 195.980469 356.0625 193.269531 348.644531 191.417969 C 341.226562 189.5625 343.082031 185.285156 338.804688 188.566406 C 334.523438 191.84375 334.382812 187.996094 332.957031 192.84375 C 331.53125 197.691406 338.515625 195.839844 342.226562 201.117188 C 345.933594 206.390625 340.65625 203.683594 351.925781 211.957031 C 363.191406 220.226562 357.347656 217.945312 363.335938 223.226562 C 369.328125 228.5 374.035156 228.5 377.597656 234.492188 C 381.164062 240.480469 385.871094 248.46875 378.882812 241.050781 C 371.894531 233.632812 371.039062 232.777344 363.90625 232.210938 C 356.777344 231.640625 355.632812 236.347656 350.214844 231.070312 C 344.792969 225.789062 328.675781 226.789062 321.828125 219.230469 C 314.984375 211.671875 309.421875 201.257812 298.296875 205.820312 C 287.171875 210.386719 279.609375 200.972656 274.902344 207.105469 C 270.195312 213.238281 274.332031 207.675781 280.75 215.09375 C 287.171875 222.511719 289.453125 221.082031 290.878906 224.078125 C 292.304688 227.078125 292.304688 224.933594 285.457031 222.511719 C 278.613281 220.085938 281.894531 219.230469 278.613281 220.085938 C 275.332031 220.941406 268.628906 209.527344 255.078125 218.515625 C 241.527344 227.503906 245.523438 220.085938 235.964844 226.507812 C 226.410156 232.921875 213.515625 243.476562 217.179688 238.199219 " fill-opacity="1" fill-rule="nonzero"/><g fill="#ffffff" fill-opacity="1"><g transform="translate(347.03826, 211.876056)"><g><path d="M 37.101562 -15.15625 C 37.101562 -12.585938 37.101562 -10.414062 37.167969 -8.371094 C 35.984375 -10.347656 34.730469 -12.324219 33.476562 -14.300781 L 12.390625 -46.921875 L 5.601562 -46.921875 L 5.601562 0 L 11.402344 0 L 11.402344 -31.765625 C 11.402344 -34.203125 11.402344 -36.378906 11.335938 -38.355469 C 12.519531 -36.445312 13.707031 -34.46875 14.960938 -32.554688 L 35.917969 0 L 42.902344 0 L 42.902344 -46.921875 L 37.101562 -46.921875 Z M 37.101562 -15.15625 "/></g></g></g><g fill="#ffffff" fill-opacity="1"><g transform="translate(395.536647, 211.876056)"><g><path d="M 26.359375 1.121094 C 39.542969 1.121094 48.570312 -8.960938 48.570312 -23.460938 C 48.570312 -37.695312 39.542969 -47.78125 26.359375 -47.78125 C 13.246094 -47.78125 4.21875 -37.695312 4.21875 -23.460938 C 4.21875 -9.09375 13.246094 1.121094 26.359375 1.121094 Z M 26.425781 -4.347656 C 17.070312 -4.347656 10.476562 -11.796875 10.476562 -23.460938 C 10.476562 -34.996094 17.070312 -42.308594 26.425781 -42.308594 C 35.71875 -42.308594 42.308594 -34.996094 42.308594 -23.460938 C 42.308594 -11.664062 35.851562 -4.347656 26.425781 -4.347656 Z M 26.425781 -4.347656 "/></g></g></g><g fill="#ffffff" fill-opacity="1"><g transform="translate(448.318168, 211.876056)"><g><path d="M 33.742188 -25.242188 C 38.089844 -27.019531 40.53125 -30.578125 40.53125 -35.457031 C 40.53125 -42.703125 35.324219 -46.921875 26.757812 -46.921875 L 5.601562 -46.921875 L 5.601562 0 L 27.21875 0 C 36.972656 0 42.703125 -5.140625 42.703125 -13.640625 C 42.703125 -19.640625 39.804688 -23.394531 33.742188 -25.242188 Z M 26.03125 -41.585938 C 31.371094 -41.585938 34.269531 -39.277344 34.269531 -34.597656 C 34.269531 -29.789062 31.171875 -27.019531 25.4375 -27.019531 L 11.730469 -27.019531 L 11.730469 -41.585938 Z M 11.730469 -5.339844 L 11.730469 -21.878906 L 26.757812 -21.878906 C 33.082031 -21.878906 36.445312 -19.046875 36.445312 -13.640625 C 36.445312 -8.171875 33.148438 -5.339844 26.757812 -5.339844 Z M 11.730469 -5.339844 "/></g></g></g><g fill="#ffffff" fill-opacity="1"><g transform="translate(495.959919, 211.876056)"><g><path d="M 26.359375 1.121094 C 39.542969 1.121094 48.570312 -8.960938 48.570312 -23.460938 C 48.570312 -37.695312 39.542969 -47.78125 26.359375 -47.78125 C 13.246094 -47.78125 4.21875 -37.695312 4.21875 -23.460938 C 4.21875 -9.09375 13.246094 1.121094 26.359375 1.121094 Z M 26.425781 -4.347656 C 17.070312 -4.347656 10.476562 -11.796875 10.476562 -23.460938 C 10.476562 -34.996094 17.070312 -42.308594 26.425781 -42.308594 C 35.71875 -42.308594 42.308594 -34.996094 42.308594 -23.460938 C 42.308594 -11.664062 35.851562 -4.347656 26.425781 -4.347656 Z M 26.425781 -4.347656 "/></g></g></g><g fill="#ffffff" fill-opacity="1"><g transform="translate(308.562295, 234.162246)"><g><path d="M 3.558594 -14.238281 L 1.699219 -14.238281 L 1.699219 0 L 10.976562 0 L 10.976562 -1.621094 L 3.558594 -1.621094 Z M 3.558594 -14.238281 "/></g></g></g><g fill="#ffffff" fill-opacity="1"><g transform="translate(320.445107, 234.162246)"><g/></g></g><g fill="#ffffff" fill-opacity="1"><g transform="translate(325.842976, 234.162246)"><g/></g></g><g fill="#ffffff" fill-opacity="1"><g transform="translate(331.240845, 234.162246)"><g/></g></g><g fill="#ffffff" fill-opacity="1"><g transform="translate(336.640419, 234.162246)"><g><path d="M 10.699219 -1.359375 C 10.015625 -1.359375 9.796875 -1.578125 9.796875 -2.257812 L 9.796875 -7.296875 C 9.796875 -9.558594 8.316406 -10.597656 5.757812 -10.597656 C 3.097656 -10.597656 1.640625 -9.519531 1.460938 -7.238281 L 3.277344 -7.238281 C 3.398438 -8.617188 4.140625 -9.078125 5.617188 -9.078125 C 7.21875 -9.078125 7.9375 -8.558594 7.9375 -7.476562 L 7.9375 -7.078125 C 7.9375 -6.597656 7.699219 -6.359375 7.199219 -6.296875 L 4.558594 -5.957031 C 2.058594 -5.636719 1.039062 -4.4375 1.039062 -2.738281 C 1.039062 -0.839844 2.398438 0.261719 4.5 0.261719 C 6.257812 0.261719 7.578125 -0.519531 8.238281 -1.519531 C 8.316406 -0.5 8.917969 0 10.015625 0 L 10.996094 0 L 10.996094 -1.359375 Z M 4.839844 -1.160156 C 3.640625 -1.160156 2.859375 -1.757812 2.859375 -2.820312 C 2.859375 -3.738281 3.417969 -4.378906 4.859375 -4.597656 L 7.9375 -5.058594 L 7.9375 -3.617188 C 7.9375 -2.300781 6.5 -1.160156 4.839844 -1.160156 Z M 4.839844 -1.160156 "/></g></g></g><g fill="#ffffff" fill-opacity="1"><g transform="translate(348.042762, 234.162246)"><g/></g></g><g fill="#ffffff" fill-opacity="1"><g transform="translate(353.44063, 234.162246)"><g/></g></g><g fill="#ffffff" fill-opacity="1"><g transform="translate(358.838499, 234.162246)"><g/></g></g><g fill="#ffffff" fill-opacity="1"><g transform="translate(364.238073, 234.162246)"><g><path d="M 6.777344 -10.578125 C 5.257812 -10.578125 4.019531 -9.957031 3.320312 -8.859375 L 3.320312 -10.316406 L 1.597656 -10.316406 L 1.597656 0 L 3.4375 0 L 3.4375 -5.738281 C 3.4375 -8.199219 4.957031 -8.976562 6.378906 -8.976562 C 7.777344 -8.976562 8.4375 -8.21875 8.4375 -6.796875 L 8.4375 0 L 10.277344 0 L 10.277344 -7.160156 C 10.277344 -9.335938 8.9375 -10.578125 6.777344 -10.578125 Z M 6.777344 -10.578125 "/></g></g></g><g fill="#ffffff" fill-opacity="1"><g transform="translate(376.120885, 234.162246)"><g/></g></g><g fill="#ffffff" fill-opacity="1"><g transform="translate(381.518754, 234.162246)"><g/></g></g><g fill="#ffffff" fill-opacity="1"><g transform="translate(386.916622, 234.162246)"><g/></g></g><g fill="#ffffff" fill-opacity="1"><g transform="translate(392.316196, 234.162246)"><g><path d="M 8.578125 -9.078125 C 7.917969 -9.976562 6.796875 -10.539062 5.457031 -10.539062 C 2.839844 -10.539062 1 -8.4375 1 -5.320312 C 1 -2.121094 2.699219 0.21875 5.5 0.21875 C 7 0.21875 8.199219 -0.558594 8.816406 -1.640625 L 8.816406 0 L 10.417969 0 L 10.417969 -14.238281 L 8.578125 -14.238281 Z M 5.679688 -1.359375 C 3.898438 -1.359375 2.839844 -2.917969 2.839844 -5.320312 C 2.839844 -7.679688 3.9375 -8.957031 5.71875 -8.957031 C 7.4375 -8.957031 8.679688 -7.71875 8.679688 -5.277344 C 8.679688 -2.839844 7.398438 -1.359375 5.679688 -1.359375 Z M 5.679688 -1.359375 "/></g></g></g><g fill="#ffffff" fill-opacity="1"><g transform="translate(404.339633, 234.162246)"><g/></g></g><g fill="#ffffff" fill-opacity="1"><g transform="translate(409.737502, 234.162246)"><g/></g></g><g fill="#ffffff" fill-opacity="1"><g transform="translate(415.13537, 234.162246)"><g/></g></g><g fill="#ffffff" fill-opacity="1"><g transform="translate(420.534944, 234.162246)"><g><path d="M 5.078125 0.261719 C 7.796875 0.261719 9.398438 -0.980469 9.398438 -3 C 9.398438 -4.5 8.496094 -5.4375 6.359375 -5.917969 L 4.359375 -6.359375 C 3.140625 -6.617188 2.757812 -7.078125 2.757812 -7.738281 C 2.757812 -8.65625 3.539062 -9.097656 4.839844 -9.097656 C 6.296875 -9.097656 7.078125 -8.496094 7.277344 -7.316406 L 9.097656 -7.398438 C 8.796875 -9.558594 7.199219 -10.558594 4.898438 -10.558594 C 2.359375 -10.558594 1.058594 -9.378906 1.058594 -7.578125 C 1.058594 -6.117188 1.917969 -5.199219 3.917969 -4.777344 L 6 -4.339844 C 7.078125 -4.117188 7.636719 -3.660156 7.636719 -2.839844 C 7.636719 -1.859375 6.839844 -1.21875 5.160156 -1.21875 C 3.578125 -1.21875 2.71875 -1.820312 2.539062 -3.257812 L 0.800781 -3.179688 C 1.039062 -0.878906 2.5 0.261719 5.078125 0.261719 Z M 5.078125 0.261719 "/></g></g></g><g fill="#ffffff" fill-opacity="1"><g transform="translate(430.636506, 234.162246)"><g/></g></g><g fill="#ffffff" fill-opacity="1"><g transform="translate(436.034375, 234.162246)"><g/></g></g><g fill="#ffffff" fill-opacity="1"><g transform="translate(441.432244, 234.162246)"><g/></g></g><g fill="#ffffff" fill-opacity="1"><g transform="translate(446.831818, 234.162246)"><g><path d="M 5.777344 0.261719 C 8.378906 0.261719 9.878906 -1.179688 10.238281 -3.597656 L 8.519531 -3.597656 C 8.238281 -2.140625 7.398438 -1.28125 5.878906 -1.28125 C 3.917969 -1.28125 2.839844 -2.71875 2.839844 -5.160156 C 2.839844 -7.597656 3.820312 -9.039062 5.898438 -9.039062 C 7.339844 -9.039062 8.21875 -8.339844 8.496094 -6.9375 L 10.238281 -6.9375 C 9.878906 -9.316406 8.257812 -10.578125 5.878906 -10.578125 C 2.898438 -10.578125 1 -8.558594 1 -5.078125 C 1 -1.597656 2.898438 0.261719 5.777344 0.261719 Z M 5.777344 0.261719 "/></g></g></g><g fill="#ffffff" fill-opacity="1"><g transform="translate(457.976352, 234.162246)"><g/></g></g><g fill="#ffffff" fill-opacity="1"><g transform="translate(463.374221, 234.162246)"><g/></g></g><g fill="#ffffff" fill-opacity="1"><g transform="translate(468.772089, 234.162246)"><g/></g></g><g fill="#ffffff" fill-opacity="1"><g transform="translate(474.171663, 234.162246)"><g><path d="M 10.699219 -1.359375 C 10.015625 -1.359375 9.796875 -1.578125 9.796875 -2.257812 L 9.796875 -7.296875 C 9.796875 -9.558594 8.316406 -10.597656 5.757812 -10.597656 C 3.097656 -10.597656 1.640625 -9.519531 1.460938 -7.238281 L 3.277344 -7.238281 C 3.398438 -8.617188 4.140625 -9.078125 5.617188 -9.078125 C 7.21875 -9.078125 7.9375 -8.558594 7.9375 -7.476562 L 7.9375 -7.078125 C 7.9375 -6.597656 7.699219 -6.359375 7.199219 -6.296875 L 4.558594 -5.957031 C 2.058594 -5.636719 1.039062 -4.4375 1.039062 -2.738281 C 1.039062 -0.839844 2.398438 0.261719 4.5 0.261719 C 6.257812 0.261719 7.578125 -0.519531 8.238281 -1.519531 C 8.316406 -0.5 8.917969 0 10.015625 0 L 10.996094 0 L 10.996094 -1.359375 Z M 4.839844 -1.160156 C 3.640625 -1.160156 2.859375 -1.757812 2.859375 -2.820312 C 2.859375 -3.738281 3.417969 -4.378906 4.859375 -4.597656 L 7.9375 -5.058594 L 7.9375 -3.617188 C 7.9375 -2.300781 6.5 -1.160156 4.839844 -1.160156 Z M 4.839844 -1.160156 "/></g></g></g><g fill="#ffffff" fill-opacity="1"><g transform="translate(485.574003, 234.162246)"><g/></g></g><g fill="#ffffff" fill-opacity="1"><g transform="translate(490.971871, 234.162246)"><g/></g></g><g fill="#ffffff" fill-opacity="1"><g transform="translate(496.36974, 234.162246)"><g/></g></g><g fill="#ffffff" fill-opacity="1"><g transform="translate(501.769314, 234.162246)"><g><path d="M 6.578125 -10.539062 C 5.058594 -10.539062 3.800781 -9.796875 3.199219 -8.65625 L 3.199219 -10.316406 L 1.597656 -10.316406 L 1.597656 4.078125 L 3.4375 4.078125 L 3.4375 -1.257812 C 4.097656 -0.378906 5.179688 0.21875 6.5 0.21875 C 9.296875 0.21875 11.015625 -2.199219 11.015625 -5.398438 C 11.015625 -8.519531 9.199219 -10.539062 6.578125 -10.539062 Z M 6.320312 -1.359375 C 4.597656 -1.359375 3.339844 -2.839844 3.339844 -5.277344 C 3.339844 -7.71875 4.597656 -8.957031 6.320312 -8.957031 C 8.097656 -8.957031 9.175781 -7.757812 9.175781 -5.398438 C 9.175781 -3 8.097656 -1.359375 6.320312 -1.359375 Z M 6.320312 -1.359375 "/></g></g></g><g fill="#ffffff" fill-opacity="1"><g transform="translate(513.792751, 234.162246)"><g/></g></g><g fill="#ffffff" fill-opacity="1"><g transform="translate(519.19062, 234.162246)"><g/></g></g><g fill="#ffffff" fill-opacity="1"><g transform="translate(524.588488, 234.162246)"><g/></g></g><g fill="#ffffff" fill-opacity="1"><g transform="translate(529.988062, 234.162246)"><g><path d="M 3.4375 -12.257812 L 3.4375 -14.238281 L 1.597656 -14.238281 L 1.597656 -12.257812 Z M 3.4375 0 L 3.4375 -10.316406 L 1.597656 -10.316406 L 1.597656 0 Z M 3.4375 0 "/></g></g></g><g fill="#ffffff" fill-opacity="1"><g transform="translate(535.027124, 234.162246)"><g/></g></g><g fill="#ffffff" fill-opacity="1"><g transform="translate(540.424993, 234.162246)"><g/></g></g><g fill="#ffffff" fill-opacity="1"><g transform="translate(545.822862, 234.162246)"><g/></g></g><g fill="#ffffff" fill-opacity="1"><g transform="translate(551.222436, 234.162246)"><g><path d="M 6.777344 -10.578125 C 5.257812 -10.578125 4.019531 -9.957031 3.320312 -8.859375 L 3.320312 -10.316406 L 1.597656 -10.316406 L 1.597656 0 L 3.4375 0 L 3.4375 -5.738281 C 3.4375 -8.199219 4.957031 -8.976562 6.378906 -8.976562 C 7.777344 -8.976562 8.4375 -8.21875 8.4375 -6.796875 L 8.4375 0 L 10.277344 0 L 10.277344 -7.160156 C 10.277344 -9.335938 8.9375 -10.578125 6.777344 -10.578125 Z M 6.777344 -10.578125 "/></g></g></g><g fill="#ffffff" fill-opacity="1"><g transform="translate(563.105248, 234.162246)"><g/></g></g><g fill="#ffffff" fill-opacity="1"><g transform="translate(568.503116, 234.162246)"><g/></g></g><g fill="#ffffff" fill-opacity="1"><g transform="translate(573.900985, 234.162246)"><g/></g></g><g fill="#ffffff" fill-opacity="1"><g transform="translate(579.300559, 234.162246)"><g><path d="M 8.796875 -8.71875 C 8.179688 -9.835938 6.957031 -10.539062 5.457031 -10.539062 C 2.839844 -10.539062 1 -8.4375 1 -5.320312 C 1 -2.121094 2.699219 0.21875 5.5 0.21875 C 6.9375 0.21875 8.097656 -0.5 8.738281 -1.5 L 8.738281 -0.160156 C 8.738281 2 7.859375 2.859375 5.738281 2.859375 C 4.277344 2.859375 3.398438 2.460938 3.121094 1.300781 L 1.320312 1.300781 C 1.597656 3.398438 3.277344 4.320312 5.679688 4.320312 C 8.597656 4.320312 10.515625 2.980469 10.515625 -0.339844 L 10.515625 -10.316406 L 8.796875 -10.316406 Z M 5.679688 -1.359375 C 3.898438 -1.359375 2.839844 -2.917969 2.839844 -5.320312 C 2.839844 -7.679688 3.9375 -8.957031 5.71875 -8.957031 C 7.4375 -8.957031 8.679688 -7.71875 8.679688 -5.277344 C 8.679688 -2.839844 7.398438 -1.359375 5.679688 -1.359375 Z M 5.679688 -1.359375 "/></g></g></g></svg>