<svg xmlns="http://www.w3.org/2000/svg" xmlns:xlink="http://www.w3.org/1999/xlink" width="1200" zoomAndPan="magnify" viewBox="0 0 900 112.499997" height="150" preserveAspectRatio="xMidYMid meet" version="1.0"><defs><g/><clipPath id="abde98b113"><path d="M 291.378906 14.175781 L 412.855469 14.175781 L 412.855469 74.386719 L 291.378906 74.386719 Z M 291.378906 14.175781 " clip-rule="nonzero"/></clipPath></defs><g clip-path="url(#abde98b113)"><path fill="#eb5050" d="M 412.515625 74.398438 C 410.761719 74.707031 407.300781 74.773438 407.035156 74.480469 C 403.433594 70.558594 399.8125 66.652344 396.28125 62.667969 C 395.675781 61.988281 395.136719 61.496094 394.476562 61.414062 C 393.738281 61.316406 393.128906 61.726562 392.890625 61.886719 C 390.691406 63.335938 384.46875 71.714844 384.15625 72.132812 C 386.816406 66.683594 388.679688 62.585938 389.335938 61.058594 C 389.527344 60.609375 389.648438 59.6875 389.832031 58.527344 C 389.917969 57.980469 389.761719 57.191406 389.398438 56.808594 C 384.492188 51.65625 379.53125 46.5625 374.59375 41.445312 C 374.0625 40.894531 373.660156 40.8125 373.085938 41.429688 C 368.917969 45.917969 364.730469 50.386719 360.527344 54.835938 C 359.933594 55.464844 359.847656 56.011719 360.074219 56.859375 C 361.332031 61.589844 362.5 66.339844 363.691406 71.089844 C 363.746094 71.308594 363.726562 71.546875 363.757812 72.074219 C 360.285156 68.339844 357 64.800781 353.710938 61.265625 C 353.453125 60.992188 353.199219 60.710938 352.9375 60.4375 C 351.308594 58.722656 351.339844 58.777344 349.234375 59.953125 C 343.597656 63.105469 337.929688 66.203125 332.277344 69.320312 C 332.035156 69.453125 331.777344 69.554688 331.386719 69.515625 C 336.539062 63.910156 341.6875 58.296875 346.839844 52.6875 C 349.902344 51.9375 352.96875 51.1875 356.03125 50.4375 C 349.667969 41.703125 343.4375 33.152344 337.023438 24.351562 C 329.753906 36.285156 322.660156 47.925781 315.40625 59.835938 C 313.945312 56.722656 312.601562 53.863281 311.15625 50.792969 C 304.601562 58.148438 298.171875 65.363281 291.746094 72.578125 C 291.636719 72.519531 291.53125 72.460938 291.421875 72.40625 C 298.105469 61.671875 304.789062 50.941406 311.46875 40.210938 C 316.933594 40.035156 319.800781 39.941406 319.800781 39.941406 C 319.800781 39.941406 320.472656 39.957031 320.898438 39.71875 C 321.183594 39.5625 321.417969 39.316406 321.636719 38.957031 C 325.628906 32.398438 329.65625 25.859375 333.675781 19.316406 C 334.679688 17.679688 335.6875 16.046875 336.835938 14.179688 C 345.144531 24.792969 353.34375 35.265625 361.664062 45.890625 C 366.046875 42.109375 370.277344 38.460938 374.636719 34.703125 C 387.21875 47.886719 399.726562 60.992188 412.519531 74.398438 Z M 412.515625 74.398438 " fill-opacity="1" fill-rule="nonzero"/></g><g fill="#2a4b73" fill-opacity="1"><g transform="translate(412.56888, 73.846098)"><g><path d="M 37.21875 -15.203125 C 37.21875 -12.625 37.21875 -10.445312 37.285156 -8.394531 C 36.09375 -10.378906 34.839844 -12.363281 33.582031 -14.34375 L 12.429688 -47.070312 L 5.621094 -47.070312 L 5.621094 0 L 11.4375 0 L 11.4375 -31.863281 C 11.4375 -34.308594 11.4375 -36.492188 11.371094 -38.476562 C 12.558594 -36.558594 13.75 -34.574219 15.007812 -32.65625 L 36.027344 0 L 43.035156 0 L 43.035156 -47.070312 L 37.21875 -47.070312 Z M 37.21875 -15.203125 "/></g></g></g><g fill="#2a4b73" fill-opacity="1"><g transform="translate(461.218226, 73.846098)"><g><path d="M 26.441406 1.125 C 39.664062 1.125 48.722656 -8.992188 48.722656 -23.535156 C 48.722656 -37.8125 39.664062 -47.929688 26.441406 -47.929688 C 13.289062 -47.929688 4.230469 -37.8125 4.230469 -23.535156 C 4.230469 -9.121094 13.289062 1.125 26.441406 1.125 Z M 26.507812 -4.363281 C 17.121094 -4.363281 10.511719 -11.832031 10.511719 -23.535156 C 10.511719 -35.101562 17.121094 -42.441406 26.507812 -42.441406 C 35.832031 -42.441406 42.441406 -35.101562 42.441406 -23.535156 C 42.441406 -11.699219 35.960938 -4.363281 26.507812 -4.363281 Z M 26.507812 -4.363281 "/></g></g></g><g fill="#2a4b73" fill-opacity="1"><g transform="translate(514.164038, 73.846098)"><g><path d="M 33.847656 -25.320312 C 38.210938 -27.105469 40.65625 -30.675781 40.65625 -35.566406 C 40.65625 -42.835938 35.433594 -47.070312 26.839844 -47.070312 L 5.621094 -47.070312 L 5.621094 0 L 27.300781 0 C 37.085938 0 42.835938 -5.15625 42.835938 -13.683594 C 42.835938 -19.699219 39.929688 -23.46875 33.847656 -25.320312 Z M 26.113281 -41.714844 C 31.46875 -41.714844 34.375 -39.398438 34.375 -34.707031 C 34.375 -29.878906 31.269531 -27.105469 25.515625 -27.105469 L 11.765625 -27.105469 L 11.765625 -41.714844 Z M 11.765625 -5.355469 L 11.765625 -21.949219 L 26.839844 -21.949219 C 33.1875 -21.949219 36.558594 -19.105469 36.558594 -13.683594 C 36.558594 -8.199219 33.253906 -5.355469 26.839844 -5.355469 Z M 11.765625 -5.355469 "/></g></g></g><g fill="#2a4b73" fill-opacity="1"><g transform="translate(561.954082, 73.846098)"><g><path d="M 26.441406 1.125 C 39.664062 1.125 48.722656 -8.992188 48.722656 -23.535156 C 48.722656 -37.8125 39.664062 -47.929688 26.441406 -47.929688 C 13.289062 -47.929688 4.230469 -37.8125 4.230469 -23.535156 C 4.230469 -9.121094 13.289062 1.125 26.441406 1.125 Z M 26.507812 -4.363281 C 17.121094 -4.363281 10.511719 -11.832031 10.511719 -23.535156 C 10.511719 -35.101562 17.121094 -42.441406 26.507812 -42.441406 C 35.832031 -42.441406 42.441406 -35.101562 42.441406 -23.535156 C 42.441406 -11.699219 35.960938 -4.363281 26.507812 -4.363281 Z M 26.507812 -4.363281 "/></g></g></g><g fill="#2a4b73" fill-opacity="1"><g transform="translate(293.886459, 96.95186)"><g><path d="M 3.929688 -15.710938 L 1.875 -15.710938 L 1.875 0 L 12.113281 0 L 12.113281 -1.789062 L 3.929688 -1.789062 Z M 3.929688 -15.710938 "/></g></g></g><g fill="#2a4b73" fill-opacity="1"><g transform="translate(306.993535, 96.95186)"><g/></g></g><g fill="#2a4b73" fill-opacity="1"><g transform="translate(312.950967, 96.95186)"><g/></g></g><g fill="#2a4b73" fill-opacity="1"><g transform="translate(318.908398, 96.95186)"><g/></g></g><g fill="#2a4b73" fill-opacity="1"><g transform="translate(324.873234, 96.95186)"><g><path d="M 11.804688 -1.5 C 11.054688 -1.5 10.8125 -1.742188 10.8125 -2.492188 L 10.8125 -8.054688 C 10.8125 -10.546875 9.179688 -11.695312 6.355469 -11.695312 C 3.421875 -11.695312 1.808594 -10.503906 1.609375 -7.988281 L 3.617188 -7.988281 C 3.75 -9.511719 4.566406 -10.019531 6.199219 -10.019531 C 7.964844 -10.019531 8.761719 -9.445312 8.761719 -8.253906 L 8.761719 -7.8125 C 8.761719 -7.28125 8.496094 -7.015625 7.945312 -6.949219 L 5.03125 -6.574219 C 2.273438 -6.222656 1.148438 -4.898438 1.148438 -3.023438 C 1.148438 -0.925781 2.648438 0.285156 4.964844 0.285156 C 6.90625 0.285156 8.363281 -0.574219 9.089844 -1.675781 C 9.179688 -0.550781 9.839844 0 11.054688 0 L 12.136719 0 L 12.136719 -1.5 Z M 5.339844 -1.28125 C 4.015625 -1.28125 3.15625 -1.941406 3.15625 -3.109375 C 3.15625 -4.125 3.773438 -4.832031 5.363281 -5.074219 L 8.761719 -5.582031 L 8.761719 -3.992188 C 8.761719 -2.539062 7.171875 -1.28125 5.339844 -1.28125 Z M 5.339844 -1.28125 "/></g></g></g><g fill="#2a4b73" fill-opacity="1"><g transform="translate(337.451325, 96.95186)"><g/></g></g><g fill="#2a4b73" fill-opacity="1"><g transform="translate(343.408756, 96.95186)"><g/></g></g><g fill="#2a4b73" fill-opacity="1"><g transform="translate(349.366188, 96.95186)"><g/></g></g><g fill="#2a4b73" fill-opacity="1"><g transform="translate(355.331023, 96.95186)"><g><path d="M 7.480469 -11.671875 C 5.804688 -11.671875 4.433594 -10.988281 3.664062 -9.773438 L 3.664062 -11.386719 L 1.765625 -11.386719 L 1.765625 0 L 3.796875 0 L 3.796875 -6.332031 C 3.796875 -9.046875 5.472656 -9.90625 7.039062 -9.90625 C 8.582031 -9.90625 9.3125 -9.070312 9.3125 -7.503906 L 9.3125 0 L 11.34375 0 L 11.34375 -7.898438 C 11.34375 -10.304688 9.863281 -11.671875 7.480469 -11.671875 Z M 7.480469 -11.671875 "/></g></g></g><g fill="#2a4b73" fill-opacity="1"><g transform="translate(368.4381, 96.95186)"><g/></g></g><g fill="#2a4b73" fill-opacity="1"><g transform="translate(374.395531, 96.95186)"><g/></g></g><g fill="#2a4b73" fill-opacity="1"><g transform="translate(380.352963, 96.95186)"><g/></g></g><g fill="#2a4b73" fill-opacity="1"><g transform="translate(386.317802, 96.95186)"><g><path d="M 9.464844 -10.019531 C 8.738281 -11.011719 7.503906 -11.628906 6.023438 -11.628906 C 3.132812 -11.628906 1.101562 -9.3125 1.101562 -5.871094 C 1.101562 -2.339844 2.980469 0.242188 6.066406 0.242188 C 7.722656 0.242188 9.046875 -0.617188 9.730469 -1.808594 L 9.730469 0 L 11.496094 0 L 11.496094 -15.710938 L 9.464844 -15.710938 Z M 6.265625 -1.5 C 4.304688 -1.5 3.132812 -3.222656 3.132812 -5.871094 C 3.132812 -8.472656 4.347656 -9.886719 6.3125 -9.886719 C 8.207031 -9.886719 9.578125 -8.515625 9.578125 -5.824219 C 9.578125 -3.132812 8.164062 -1.5 6.265625 -1.5 Z M 6.265625 -1.5 "/></g></g></g><g fill="#2a4b73" fill-opacity="1"><g transform="translate(399.589448, 96.95186)"><g/></g></g><g fill="#2a4b73" fill-opacity="1"><g transform="translate(405.546879, 96.95186)"><g/></g></g><g fill="#2a4b73" fill-opacity="1"><g transform="translate(411.504311, 96.95186)"><g/></g></g><g fill="#2a4b73" fill-opacity="1"><g transform="translate(417.46915, 96.95186)"><g><path d="M 5.605469 0.285156 C 8.605469 0.285156 10.371094 -1.082031 10.371094 -3.308594 C 10.371094 -4.964844 9.378906 -6 7.015625 -6.53125 L 4.808594 -7.015625 C 3.464844 -7.304688 3.046875 -7.8125 3.046875 -8.539062 C 3.046875 -9.554688 3.90625 -10.039062 5.339844 -10.039062 C 6.949219 -10.039062 7.8125 -9.378906 8.03125 -8.074219 L 10.039062 -8.164062 C 9.710938 -10.546875 7.945312 -11.652344 5.40625 -11.652344 C 2.605469 -11.652344 1.167969 -10.347656 1.167969 -8.363281 C 1.167969 -6.753906 2.117188 -5.738281 4.324219 -5.273438 L 6.621094 -4.789062 C 7.8125 -4.546875 8.429688 -4.039062 8.429688 -3.132812 C 8.429688 -2.050781 7.546875 -1.347656 5.691406 -1.347656 C 3.949219 -1.347656 3 -2.007812 2.800781 -3.597656 L 0.882812 -3.507812 C 1.148438 -0.972656 2.757812 0.285156 5.605469 0.285156 Z M 5.605469 0.285156 "/></g></g></g><g fill="#2a4b73" fill-opacity="1"><g transform="translate(428.613104, 96.95186)"><g/></g></g><g fill="#2a4b73" fill-opacity="1"><g transform="translate(434.570536, 96.95186)"><g/></g></g><g fill="#2a4b73" fill-opacity="1"><g transform="translate(440.527967, 96.95186)"><g/></g></g><g fill="#2a4b73" fill-opacity="1"><g transform="translate(446.492799, 96.95186)"><g><path d="M 6.378906 0.285156 C 9.246094 0.285156 10.902344 -1.300781 11.296875 -3.972656 L 9.398438 -3.972656 C 9.089844 -2.359375 8.164062 -1.414062 6.488281 -1.414062 C 4.324219 -1.414062 3.132812 -3 3.132812 -5.691406 C 3.132812 -8.386719 4.214844 -9.972656 6.507812 -9.972656 C 8.097656 -9.972656 9.070312 -9.203125 9.378906 -7.65625 L 11.296875 -7.65625 C 10.902344 -10.28125 9.113281 -11.671875 6.488281 -11.671875 C 3.199219 -11.671875 1.101562 -9.445312 1.101562 -5.605469 C 1.101562 -1.765625 3.199219 0.285156 6.378906 0.285156 Z M 6.378906 0.285156 "/></g></g></g><g fill="#2a4b73" fill-opacity="1"><g transform="translate(458.788765, 96.95186)"><g/></g></g><g fill="#2a4b73" fill-opacity="1"><g transform="translate(464.746196, 96.95186)"><g/></g></g><g fill="#2a4b73" fill-opacity="1"><g transform="translate(470.703628, 96.95186)"><g/></g></g><g fill="#2a4b73" fill-opacity="1"><g transform="translate(476.668467, 96.95186)"><g><path d="M 11.804688 -1.5 C 11.054688 -1.5 10.8125 -1.742188 10.8125 -2.492188 L 10.8125 -8.054688 C 10.8125 -10.546875 9.179688 -11.695312 6.355469 -11.695312 C 3.421875 -11.695312 1.808594 -10.503906 1.609375 -7.988281 L 3.617188 -7.988281 C 3.75 -9.511719 4.566406 -10.019531 6.199219 -10.019531 C 7.964844 -10.019531 8.761719 -9.445312 8.761719 -8.253906 L 8.761719 -7.8125 C 8.761719 -7.28125 8.496094 -7.015625 7.945312 -6.949219 L 5.03125 -6.574219 C 2.273438 -6.222656 1.148438 -4.898438 1.148438 -3.023438 C 1.148438 -0.925781 2.648438 0.285156 4.964844 0.285156 C 6.90625 0.285156 8.363281 -0.574219 9.089844 -1.675781 C 9.179688 -0.550781 9.839844 0 11.054688 0 L 12.136719 0 L 12.136719 -1.5 Z M 5.339844 -1.28125 C 4.015625 -1.28125 3.15625 -1.941406 3.15625 -3.109375 C 3.15625 -4.125 3.773438 -4.832031 5.363281 -5.074219 L 8.761719 -5.582031 L 8.761719 -3.992188 C 8.761719 -2.539062 7.171875 -1.28125 5.339844 -1.28125 Z M 5.339844 -1.28125 "/></g></g></g><g fill="#2a4b73" fill-opacity="1"><g transform="translate(489.246558, 96.95186)"><g/></g></g><g fill="#2a4b73" fill-opacity="1"><g transform="translate(495.20399, 96.95186)"><g/></g></g><g fill="#2a4b73" fill-opacity="1"><g transform="translate(501.161421, 96.95186)"><g/></g></g><g fill="#2a4b73" fill-opacity="1"><g transform="translate(507.126253, 96.95186)"><g><path d="M 7.257812 -11.628906 C 5.582031 -11.628906 4.191406 -10.8125 3.53125 -9.554688 L 3.53125 -11.386719 L 1.765625 -11.386719 L 1.765625 4.5 L 3.796875 4.5 L 3.796875 -1.390625 C 4.523438 -0.417969 5.714844 0.242188 7.171875 0.242188 C 10.261719 0.242188 12.160156 -2.425781 12.160156 -5.957031 C 12.160156 -9.398438 10.148438 -11.628906 7.257812 -11.628906 Z M 6.972656 -1.5 C 5.074219 -1.5 3.683594 -3.132812 3.683594 -5.824219 C 3.683594 -8.515625 5.074219 -9.886719 6.972656 -9.886719 C 8.9375 -9.886719 10.128906 -8.5625 10.128906 -5.957031 C 10.128906 -3.308594 8.9375 -1.5 6.972656 -1.5 Z M 6.972656 -1.5 "/></g></g></g><g fill="#2a4b73" fill-opacity="1"><g transform="translate(520.397907, 96.95186)"><g/></g></g><g fill="#2a4b73" fill-opacity="1"><g transform="translate(526.355338, 96.95186)"><g/></g></g><g fill="#2a4b73" fill-opacity="1"><g transform="translate(532.312769, 96.95186)"><g/></g></g><g fill="#2a4b73" fill-opacity="1"><g transform="translate(538.277601, 96.95186)"><g><path d="M 3.796875 -13.527344 L 3.796875 -15.710938 L 1.765625 -15.710938 L 1.765625 -13.527344 Z M 3.796875 0 L 3.796875 -11.386719 L 1.765625 -11.386719 L 1.765625 0 Z M 3.796875 0 "/></g></g></g><g fill="#2a4b73" fill-opacity="1"><g transform="translate(543.849578, 96.95186)"><g/></g></g><g fill="#2a4b73" fill-opacity="1"><g transform="translate(549.807009, 96.95186)"><g/></g></g><g fill="#2a4b73" fill-opacity="1"><g transform="translate(555.764441, 96.95186)"><g/></g></g><g fill="#2a4b73" fill-opacity="1"><g transform="translate(561.72928, 96.95186)"><g><path d="M 7.480469 -11.671875 C 5.804688 -11.671875 4.433594 -10.988281 3.664062 -9.773438 L 3.664062 -11.386719 L 1.765625 -11.386719 L 1.765625 0 L 3.796875 0 L 3.796875 -6.332031 C 3.796875 -9.046875 5.472656 -9.90625 7.039062 -9.90625 C 8.582031 -9.90625 9.3125 -9.070312 9.3125 -7.503906 L 9.3125 0 L 11.34375 0 L 11.34375 -7.898438 C 11.34375 -10.304688 9.863281 -11.671875 7.480469 -11.671875 Z M 7.480469 -11.671875 "/></g></g></g><g fill="#2a4b73" fill-opacity="1"><g transform="translate(574.836353, 96.95186)"><g/></g></g><g fill="#2a4b73" fill-opacity="1"><g transform="translate(580.793784, 96.95186)"><g/></g></g><g fill="#2a4b73" fill-opacity="1"><g transform="translate(586.751216, 96.95186)"><g/></g></g><g fill="#2a4b73" fill-opacity="1"><g transform="translate(592.716055, 96.95186)"><g><path d="M 9.710938 -9.621094 C 9.023438 -10.855469 7.679688 -11.628906 6.023438 -11.628906 C 3.132812 -11.628906 1.101562 -9.3125 1.101562 -5.871094 C 1.101562 -2.339844 2.980469 0.242188 6.066406 0.242188 C 7.65625 0.242188 8.9375 -0.550781 9.644531 -1.65625 L 9.644531 -0.175781 C 9.644531 2.207031 8.671875 3.15625 6.332031 3.15625 C 4.722656 3.15625 3.75 2.714844 3.441406 1.433594 L 1.457031 1.433594 C 1.765625 3.75 3.617188 4.765625 6.265625 4.765625 C 9.488281 4.765625 11.605469 3.289062 11.605469 -0.375 L 11.605469 -11.386719 L 9.710938 -11.386719 Z M 6.265625 -1.5 C 4.304688 -1.5 3.132812 -3.222656 3.132812 -5.871094 C 3.132812 -8.472656 4.347656 -9.886719 6.3125 -9.886719 C 8.207031 -9.886719 9.578125 -8.515625 9.578125 -5.824219 C 9.578125 -3.132812 8.164062 -1.5 6.265625 -1.5 Z M 6.265625 -1.5 "/></g></g></g></svg>